<svg width="51" height="57" viewBox="0 0 51 57" fill="none" xmlns="http://www.w3.org/2000/svg">
<path d="M41.7097 42.7161C41.7097 42.7161 48.4961 47.3671 50.1278 46.0641C51.7596 44.7641 45.2839 39.0997 45.2839 39.0997L41.7097 42.7161Z" fill="#24285B"/>
<path d="M26.9666 5.07428C26.9666 5.07428 30.8996 -0.76804 38.434 1.23168C45.9654 3.2314 46.2972 10.1354 45.151 12.8168C45.151 12.8168 32.6008 12.7052 26.9666 5.07428Z" fill="#FB645C"/>
<path d="M22.0111 49.774C33.3034 49.774 42.4577 40.6197 42.4577 29.3274C42.4577 18.035 33.3034 8.88074 22.0111 8.88074C10.7187 8.88074 1.56445 18.035 1.56445 29.3274C1.56445 40.6197 10.7187 49.774 22.0111 49.774Z" fill="#24285B"/>
<path d="M27.8443 49.1435C39.1367 49.1435 48.2909 39.9892 48.2909 28.6969C48.2909 17.4045 39.1367 8.25024 27.8443 8.25024C16.552 8.25024 7.39771 17.4045 7.39771 28.6969C7.39771 39.9892 16.552 49.1435 27.8443 49.1435Z" fill="#1C64FF"/>
<path d="M27.8444 42.4144C35.4204 42.4144 41.5619 36.2729 41.5619 28.6969C41.5619 21.1209 35.4204 14.9794 27.8444 14.9794C20.2684 14.9794 14.1268 21.1209 14.1268 28.6969C14.1268 36.2729 20.2684 42.4144 27.8444 42.4144Z" fill="white"/>
<path d="M21.5948 31.3662L21.4017 29.5655L26.9636 28.9653L25.9863 19.9319L27.7839 19.7358L28.9572 30.5699L21.5948 31.3662Z" fill="#24285B"/>
<path d="M0.662608 19.1356C0.662608 19.1356 -2.10322 12.6569 3.66671 7.42082C9.43966 2.18475 15.4147 5.65636 17.0434 8.07834C17.0434 8.07834 10.1304 18.5535 0.662608 19.1356Z" fill="#FB645C"/>
<path d="M14.3017 47.186C14.3017 47.186 12.489 55.209 14.3017 56.2466C16.1145 57.2812 18.9828 49.1707 18.9828 49.1707L14.3017 47.186Z" fill="#24285B"/>
</svg>
