<svg width="51" height="57" viewBox="0 0 51 57" fill="none" xmlns="http://www.w3.org/2000/svg">
<path d="M41.7097 42.716C41.7097 42.716 48.4961 47.3669 50.1278 46.0639C51.7596 44.764 45.2839 39.0996 45.2839 39.0996L41.7097 42.716Z" fill="#24285B"/>
<path d="M26.9666 5.07403C26.9666 5.07403 30.8996 -0.768285 38.434 1.23144C45.9654 3.23116 46.2972 10.1352 45.151 12.8165C45.151 12.8165 32.6008 12.7049 26.9666 5.07403Z" fill="#17191C"/>
<path d="M22.0111 49.7736C33.3034 49.7736 42.4577 40.6193 42.4577 29.327C42.4577 18.0346 33.3034 8.88037 22.0111 8.88037C10.7187 8.88037 1.56445 18.0346 1.56445 29.327C1.56445 40.6193 10.7187 49.7736 22.0111 49.7736Z" fill="#24285B"/>
<path d="M27.8443 49.1432C39.1367 49.1432 48.2909 39.989 48.2909 28.6966C48.2909 17.4043 39.1367 8.25 27.8443 8.25C16.552 8.25 7.39771 17.4043 7.39771 28.6966C7.39771 39.989 16.552 49.1432 27.8443 49.1432Z" fill="#7F4BD3"/>
<path d="M27.8444 42.4141C35.4204 42.4141 41.5619 36.2725 41.5619 28.6965C41.5619 21.1206 35.4204 14.979 27.8444 14.979C20.2684 14.979 14.1268 21.1206 14.1268 28.6965C14.1268 36.2725 20.2684 42.4141 27.8444 42.4141Z" fill="white"/>
<path d="M21.5948 31.3662L21.4017 29.5655L26.9636 28.9653L25.9863 19.9319L27.7839 19.7358L28.9572 30.5699L21.5948 31.3662Z" fill="#24285B"/>
<path d="M0.662608 19.1353C0.662608 19.1353 -2.10322 12.6565 3.66671 7.42046C9.43966 2.18439 15.4147 5.65599 17.0434 8.07798C17.0434 8.07798 10.1304 18.5531 0.662608 19.1353Z" fill="#17191C"/>
<path d="M14.3017 47.1855C14.3017 47.1855 12.489 55.2086 14.3017 56.2461C16.1145 57.2807 18.9828 49.1702 18.9828 49.1702L14.3017 47.1855Z" fill="#24285B"/>
</svg>
