<svg width="138" height="110" viewBox="0 0 138 110" fill="none" xmlns="http://www.w3.org/2000/svg">
<path d="M0 74H34V110H0V74Z" fill="#FB645C"/>
<rect x="52" y="40" width="34" height="70" fill="#031E59"/>
<rect x="104" width="34" height="110" fill="#4D85FF"/>
<path d="M71.5932 7.63633L71.5923 7.6399L70.4257 12.4466L70.1457 13.6H71.3327H78.1343C78.3517 13.6 78.566 13.6506 78.7604 13.7478C78.9548 13.845 79.1239 13.9862 79.2543 14.16C79.3847 14.3339 79.4729 14.5358 79.5117 14.7496L80.43 14.5826L79.5117 14.7496C79.5506 14.9634 79.5392 15.1834 79.4783 15.392L79.4782 15.3924L76.76 24.7254C76.76 24.7255 76.7599 24.7256 76.7599 24.7257C76.675 25.0164 76.4982 25.2717 76.256 25.4534C76.0137 25.6351 75.7189 25.7334 75.416 25.7334H59.666C59.2947 25.7334 58.9386 25.5859 58.676 25.3233C58.4135 25.0608 58.266 24.7047 58.266 24.3334V15C58.266 14.6287 58.4135 14.2726 58.676 14.0101C58.9386 13.7475 59.2947 13.6 59.666 13.6H62.886H62.8865C63.4942 13.5997 64.0898 13.4299 64.6063 13.1096C65.1223 12.7896 65.539 12.3321 65.8094 11.7885C65.8097 11.788 65.8099 11.7875 65.8102 11.787L69.5435 4.3311C69.7589 4.37894 69.9683 4.45296 70.167 4.55201C70.5335 4.73476 70.8541 4.99799 71.1046 5.32201L71.8292 4.76173L71.1046 5.32201C71.3551 5.64604 71.5292 6.02249 71.6138 6.42324L72.527 6.23044L71.6138 6.42324C71.6984 6.82399 71.6914 7.23868 71.5932 7.63633Z" stroke="#031E59" stroke-width="1.86667"/>
<mask id="path-5-inside-1_328_162" fill="white">
<path d="M63.1667 12.6664V26.6664V12.6664Z"/>
</mask>
<path d="M62.2333 12.6664V26.6664H64.1V12.6664H62.2333Z" fill="#031E59" mask="url(#path-5-inside-1_328_162)"/>
</svg>
