<svg width="187" height="226" viewBox="0 0 187 226" fill="none" xmlns="http://www.w3.org/2000/svg">
<path d="M90.6097 52.8462C90.6097 52.8462 111.831 69.6588 115.904 100.628C119.977 131.597 159.35 108.323 170.661 74.3796L181.52 81.6224C181.52 81.6224 164.819 139.426 115.898 141.809C66.9782 144.197 49.4736 65.7026 90.6041 52.8462H90.6097Z" fill="#4D85FF"/>
<g opacity="0.2">
<path d="M90.6097 52.8462C90.6097 52.8462 111.831 69.6588 115.904 100.628C119.977 131.597 159.35 108.323 170.661 74.3796L181.52 81.6224C181.52 81.6224 164.819 139.426 115.898 141.809C66.9782 144.197 49.4736 65.7026 90.6041 52.8462H90.6097Z" fill="white"/>
</g>
<path d="M74.0871 9.69586C74.0871 9.69586 77.3738 15.8172 78.1159 20.5044C78.4172 22.4072 77.1004 24.2207 75.1976 24.4941C72.8316 24.8345 69.5338 24.6113 67.3744 21.5479L63.0721 16.7937C63.0721 16.7937 60.483 13.7191 62.9661 9.58984C65.4492 5.45503 72.2736 5.86795 74.0871 9.70144V9.69586Z" fill="#F4D5CC"/>
<path d="M66.2695 17.6753L60.8122 39.7722L73.2055 41.9094L72.2234 25.3981L66.2695 17.6753Z" fill="#F4D5CC"/>
<path d="M75.9565 13.6577L78.7911 15.354C79.4886 15.7725 79.5165 16.777 78.8413 17.2345L76.5982 18.7411L75.9565 13.6633V13.6577Z" fill="#F4D5CC"/>
<g opacity="0.31">
<path d="M72.2904 24.5222C72.2904 24.5222 67.7426 23.5457 66.2304 22.1172C66.2304 22.1172 66.6601 32.4682 72.7256 33.8129L72.2904 24.5222Z" fill="#CE8172"/>
</g>
<path d="M64.2384 15.5939C64.2384 15.5939 60.511 14.3886 59.8748 17.2847C59.2387 20.1751 63.3791 21.4027 65.5107 19.2433C65.5107 19.2433 64.1659 17.7813 64.2329 15.5939H64.2384Z" fill="#F4D5CC"/>
<path d="M74.7568 214.746C74.7568 214.746 76.481 219.539 80.8111 219.907C85.1412 220.275 86.2796 224.511 82.3847 225.616C78.4898 226.72 68.4458 221.715 68.4458 221.715L68.7248 215.465L74.7568 214.751V214.746Z" fill="#4D85FF"/>
<path d="M129.486 215.253C129.486 215.253 134.251 217.05 137.342 213.998C140.434 210.94 144.39 212.826 142.705 216.503C141.014 220.181 130.686 224.578 130.686 224.578L125.05 219.316L129.486 215.253Z" fill="#4D85FF"/>
<path d="M74.2601 41.6581L61.8668 39.521C61.8668 39.521 20.6471 39.5824 13.4321 53.6999C6.21711 67.8118 7.73487 120.359 31.5728 163.487L80.3926 164.899C80.3926 164.899 77.6862 133.221 86.7817 115.968C95.8772 98.714 124.151 62.0643 74.2601 41.6526V41.6581Z" fill="#4D85FF"/>
<path d="M31.5784 163.487L55.4554 159.888C70.2257 157.662 83.1268 169.966 81.5979 184.825L78.4786 215.159H66.7605L67.7761 186.756C68.016 179.982 62.0175 174.664 55.3326 175.741C45.2744 176 32.5772 176.673 31.5728 163.482L31.5784 163.487Z" fill="#24285B"/>
<path d="M93.3996 161.93L131.428 213.395L124.034 220.259C124.034 220.259 90.9556 181.634 73.2111 170.758L67.0172 162.461L93.4052 161.925L93.3996 161.93Z" fill="#24285B"/>
<path d="M12.7458 55.0001C3.70611 67.7282 -4.33472 95.8348 2.64591 135.436C4.77191 147.489 14.9276 156.495 27.1423 157.271L64.4448 159.626V147.461L36.0982 143.366C29.5026 142.411 25.3176 135.81 27.2539 129.432C32.248 112.993 39.9819 83.2072 37.9843 61.9752C36.7678 49.0797 20.2453 44.4371 12.7458 55.0001Z" fill="#4D85FF"/>
<g opacity="0.1">
<path d="M12.7458 55.0001C3.70611 67.7282 -4.33472 95.8348 2.64591 135.436C4.7719 147.489 14.9276 156.495 27.1423 157.271L64.4448 159.626V147.461L36.0982 143.366C29.5026 142.411 25.3176 135.81 27.2539 129.432C32.248 112.993 39.9819 83.2072 37.9843 61.9752C36.7678 49.0797 20.2453 44.4371 12.7458 55.0001Z" fill="white"/>
</g>
<path d="M64.4449 150.408C64.4449 150.408 79.5835 150.023 77.4296 157.919C75.2701 165.814 64.4449 159.626 64.4449 159.626V150.408Z" fill="#F4D5CC"/>
<path d="M114.81 162.466L120.926 127.92H77.5858L73.8249 157.366L53.9544 157.645V162.466H114.81Z" fill="#FB645C"/>
<path d="M97.5568 148.823C99.9544 148.823 101.898 146.879 101.898 144.482C101.898 142.084 99.9544 140.14 97.5568 140.14C95.1592 140.14 93.2155 142.084 93.2155 144.482C93.2155 146.879 95.1592 148.823 97.5568 148.823Z" fill="white"/>
<path d="M65.1201 24.6112C65.1201 24.6112 53.3294 21.492 57.0625 13.6576C57.0625 13.6576 52.8886 7.00621 59.8134 3.61355C63.8924 1.6159 69.9356 0.55569 74.2155 0.0255862C76.7991 -0.298056 78.6182 2.51428 77.2678 4.7463C75.4599 7.7372 72.1509 11.0964 66.2305 12.0785C66.2305 12.0785 68.9368 17.9543 65.1201 24.6168V24.6112Z" fill="#24285B"/>
<path d="M68.0384 17.0335C68.0384 17.0335 66.9335 14.595 65.1702 15.5771C63.4069 16.5592 64.9805 20.0914 67.631 19.3436L68.0384 17.0335Z" fill="#F4D5CC"/>
<path d="M172.385 75.5292C172.385 75.5292 177 59.6707 180.392 59.4475C183.785 59.2187 180.392 68.4983 180.392 68.4983C180.392 68.4983 192.836 71.6678 181.525 81.6226L172.385 75.5292Z" fill="#F4D5CC"/>
</svg>
