<svg width="40" height="40" viewBox="0 0 40 40" fill="none" xmlns="http://www.w3.org/2000/svg">
<path d="M5.18781 11.6551L13.5327 20C13.892 20 14.2513 20.0232 14.599 20.0695L20.5911 14.0774L16.3144 9.80065L11.6783 5.16458L5.18781 11.6551ZM21.8081 27.2786C21.8545 27.6263 21.8777 27.9856 21.8777 28.3449L26.5137 32.981L34.8586 34.8354L33.0042 26.4905L27.8002 21.2865L21.8081 27.2786Z" fill="#252524"/>
<path d="M36.6667 9.80065L34.3718 12.0955L21.1185 25.3489L16.5288 20.7592L29.7821 7.5058L32.077 5.21094L36.6667 9.80065ZM15.2191 22.0688L19.8088 26.6586L19.803 26.6644C19.9479 27.2033 20.0232 27.7654 20.0232 28.3449C20.0232 31.9321 17.1199 34.8354 13.5327 34.8354H3.33334V31.1266H7.0422V28.3449C7.0422 24.7578 9.94554 21.8544 13.5327 21.8544C14.1122 21.8544 14.6801 21.9298 15.2133 22.0746L15.2191 22.0688Z" fill="#7f4bd3"/>
</svg>
