<svg width="40" height="40" viewBox="0 0 40 40" fill="none" xmlns="http://www.w3.org/2000/svg">
<path d="M8.33331 6.66663H31.6666V15.8333V17.5V28.3333H22.5L15 33.3333V28.3333H8.33331V17.5V15.8333V6.66663ZM11.6666 11.6666V21.6666H28.3333V11.6666H11.6666Z"  fill="#7f4bd3"/>
<path d="M6.66665 15H3.33331V18.3333H6.66665V17.5H8.33331V15.8333H6.66665V15ZM16.6666 16.6666C16.6666 16.2246 16.4911 15.8007 16.1785 15.4881C15.8659 15.1756 15.442 15 15 15C14.558 15 14.134 15.1756 13.8215 15.4881C13.5089 15.8007 13.3333 16.2246 13.3333 16.6666C13.3333 17.1087 13.5089 17.5326 13.8215 17.8451C14.134 18.1577 14.558 18.3333 15 18.3333C15.442 18.3333 15.8659 18.1577 16.1785 17.8451C16.4911 17.5326 16.6666 17.1087 16.6666 16.6666ZM26.6666 16.6666C26.6666 16.2246 26.4911 15.8007 26.1785 15.4881C25.8659 15.1756 25.442 15 25 15C24.558 15 24.134 15.1756 23.8215 15.4881C23.5089 15.8007 23.3333 16.2246 23.3333 16.6666C23.3333 17.1087 23.5089 17.5326 23.8215 17.8451C24.134 18.1577 24.558 18.3333 25 18.3333C25.442 18.3333 25.8659 18.1577 26.1785 17.8451C26.4911 17.5326 26.6666 17.1087 26.6666 16.6666ZM31.6666 17.5H33.3333V18.3333H36.6666V15H33.3333V15.8333H31.6666V17.5Z" fill="#252524"/>
</svg>
