<svg width="40" height="40" viewBox="0 0 40 40" fill="none" xmlns="http://www.w3.org/2000/svg">
<path d="M3.33334 25.4054H5.5856V34.4144H12.7928V25.4054H13.6937L10.991 22.7027L14.7748 18.9189L14.5946 14.5946H3.78379L3.33334 25.4054ZM5.5856 9.18919C5.5856 10.1449 5.96526 11.0615 6.64107 11.7373C7.31687 12.4131 8.23346 12.7928 9.1892 12.7928C10.1449 12.7928 11.0615 12.4131 11.7373 11.7373C12.4131 11.0615 12.7928 10.1449 12.7928 9.18919C12.7928 8.23346 12.4131 7.31687 11.7373 6.64106C11.0615 5.96525 10.1449 5.58559 9.1892 5.58559C8.23346 5.58559 7.31687 5.96525 6.64107 6.64106C5.96526 7.31687 5.5856 8.23346 5.5856 9.18919ZM25.2252 18.9189L29.009 22.7027L26.3063 25.4054H27.2072V34.4144H34.4144V25.4054H36.6667L36.2162 14.5946H25.4054L25.2252 18.9189ZM27.2072 9.18919C27.2072 10.1449 27.5869 11.0615 28.2627 11.7373C28.9385 12.4131 29.8551 12.7928 30.8108 12.7928C31.7666 12.7928 32.6831 12.4131 33.359 11.7373C34.0348 11.0615 34.4144 10.1449 34.4144 9.18919C34.4144 8.23346 34.0348 7.31687 33.359 6.64106C32.6831 5.96525 31.7666 5.58559 30.8108 5.58559C29.8551 5.58559 28.9385 5.96525 28.2627 6.64106C27.5869 7.31687 27.2072 8.23346 27.2072 9.18919Z" fill="#7f4bd3"/>
<path d="M10.991 22.7027L17.2973 16.3964V20.9009H22.7027V16.3964L29.009 22.7027L22.7027 29.009V24.5045H17.2973V29.009L10.991 22.7027Z" fill="#252524"/>
</svg>
