<svg width="174" height="139" viewBox="0 0 174 139" fill="none" xmlns="http://www.w3.org/2000/svg">
<path d="M137.595 71.8359C137.595 71.8359 185.195 85.098 171.537 126.007L143.502 123.782L137.602 71.8359H137.595Z" fill="#68E1FD"/>
<path d="M137.595 71.8359C137.595 71.8359 185.195 85.098 171.537 126.007L143.502 123.782L137.602 71.8359H137.595Z" fill="#636464"/>
<path d="M97.7535 22.8569L90.6129 61.4092L113.518 75.3992L108.693 34.8018L97.7535 22.8569Z" fill="#F4D5CC"/>
<path opacity="0.31" d="M109.719 41.1247C109.719 41.1247 105.747 40.2096 102.821 36.771C102.821 36.771 102.946 43.9462 110.641 51.2255L109.712 41.1247H109.719Z" fill="#CE8172"/>
<path fill-rule="evenodd" clip-rule="evenodd" d="M112.575 64.8272L91.4725 61.1321C17.3225 56.2373 14.8037 95.051 24.0766 126.007H159.896C181.323 72.2879 112.575 64.8272 112.575 64.8272Z" fill="#636464"/>
<path d="M4.77336 50.74C4.77336 50.74 4.4198 38.6149 0.794045 27.5019C-2.83171 16.3889 7.08192 20.3336 8.01783 27.1899C8.95373 34.0393 18.3682 20.6525 22.9021 30.6701C27.4361 40.6877 18.181 47.3291 18.181 47.3291L4.77336 50.7469V50.74Z" fill="#F4D5CC"/>
<path d="M3.5186 49.8803C3.5186 49.8803 15.0961 141.155 37.9945 138.299C75.2781 133.654 19.1031 48.7988 19.1031 48.7988L3.5186 49.8803Z" fill="#F4D5CC"/>
<path d="M171.53 126.008C171.53 126.008 155.71 114.791 149.242 123.061C142.774 131.332 157.152 143.693 171.53 126.008Z" fill="#F4D5CC"/>
<path d="M20.8093 45.0452L2.02072 46.646L2.56983 53.0908L21.3585 51.4899L20.8093 45.0452Z" fill="#252524"/>
<path d="M115.258 20.1258C115.258 20.1258 117.615 31.8558 116.506 39.96C116.056 43.246 112.978 45.5754 109.698 45.0832C105.629 44.4662 100.298 42.4488 98.2734 36.3134L93.5593 26.3235C93.5593 26.3235 90.8209 19.9594 96.984 14.3925C103.147 8.8187 114.184 12.9089 115.265 20.1258H115.258Z" fill="#F4D5CC"/>
<path d="M116.361 27.5923L120.187 31.8004C121.13 32.8403 120.673 34.511 119.335 34.9201L114.884 36.2858L116.368 27.5923H116.361Z" fill="#F4D5CC"/>
<path d="M93.9128 38.6981L89.8364 22.9472C89.8364 22.9472 80.7686 21.3597 83.5208 15.4392C86.2731 9.51878 89.885 13.4773 90.0513 6.67641C90.2177 -0.124484 95.743 -1.48328 99.653 2.35046C103.556 6.19112 101.754 0.839148 106.641 0.132022C111.529 -0.575104 112.818 1.6156 112.915 5.33148C113.012 9.04736 120.076 5.11657 121.879 9.81688C123.675 14.5172 123.917 19.0858 111.75 19.7998C99.5837 20.5139 108.263 30.5592 93.9128 38.712V38.6981Z" fill="#252524"/>
<path d="M103.764 31.7169C103.764 31.7169 103.161 27.1483 99.764 27.8901C96.367 28.6249 97.192 35.2317 101.934 35.3287L103.764 31.7238V31.7169Z" fill="#F4D5CC"/>
</svg>
