<svg width="360" height="198" viewBox="0 0 360 198" fill="none" xmlns="http://www.w3.org/2000/svg">
<g clip-path="url(#clip0_325_350)">
<path d="M0 16C0 7.16345 7.16344 0 16 0H344C352.837 0 360 7.16344 360 16V198H0V16Z" fill="#031E59"/>
<path d="M134 44C134 39.5817 137.582 36 142 36H446C450.418 36 454 39.5817 454 44V202H134V44Z" fill="white"/>
<path d="M161.453 54.7128C161.828 53.7625 163.172 53.7625 163.547 54.7128L164.708 57.6574C164.823 57.9475 165.053 58.1772 165.343 58.2916L168.287 59.4529C169.238 59.8277 169.238 61.1725 168.287 61.5473L165.343 62.7086C165.053 62.823 164.823 63.0527 164.708 63.3428L163.547 66.2874C163.172 67.2377 161.828 67.2377 161.453 66.2874L160.291 63.3428C160.177 63.0527 159.947 62.823 159.657 62.7086L156.713 61.5473C155.762 61.1725 155.762 59.8277 156.713 59.4529L159.657 58.2916C159.947 58.1772 160.177 57.9475 160.291 57.6574L161.453 54.7128Z" fill="#1C64FF"/>
<path d="M170.924 65.3917C171.13 64.8696 171.869 64.8696 172.075 65.3917L172.976 67.6754C173.039 67.8349 173.165 67.9611 173.325 68.024L175.608 68.9246C176.13 69.1306 176.13 69.8696 175.608 70.0756L173.325 70.9762C173.165 71.0391 173.039 71.1653 172.976 71.3248L172.075 73.6085C171.869 74.1306 171.13 74.1306 170.924 73.6085L170.024 71.3248C169.961 71.1653 169.835 71.0391 169.675 70.9762L167.392 70.0756C166.869 69.8696 166.869 69.1306 167.392 68.9246L169.675 68.024C169.835 67.9611 169.961 67.8349 170.024 67.6754L170.924 65.3917Z" fill="#1C64FF"/>
<path d="M191.74 60.76V59.776H194.008C194.32 59.776 194.596 59.712 194.836 59.584C195.084 59.456 195.276 59.276 195.412 59.044C195.556 58.812 195.628 58.536 195.628 58.216C195.628 57.896 195.556 57.62 195.412 57.388C195.276 57.156 195.084 56.976 194.836 56.848C194.596 56.72 194.32 56.656 194.008 56.656H191.74V55.672H194.08C194.592 55.672 195.048 55.776 195.448 55.984C195.856 56.192 196.176 56.488 196.408 56.872C196.648 57.248 196.768 57.696 196.768 58.216C196.768 58.728 196.648 59.176 196.408 59.56C196.176 59.936 195.856 60.232 195.448 60.448C195.048 60.656 194.592 60.76 194.08 60.76H191.74ZM190.984 64V55.672H192.112V64H190.984ZM198.069 64V55.432H199.149V64H198.069ZM203.37 64.12C202.802 64.12 202.29 63.992 201.834 63.736C201.378 63.472 201.018 63.116 200.754 62.668C200.49 62.22 200.358 61.712 200.358 61.144C200.358 60.584 200.486 60.08 200.742 59.632C201.006 59.184 201.358 58.832 201.798 58.576C202.246 58.312 202.746 58.18 203.298 58.18C203.826 58.18 204.29 58.3 204.69 58.54C205.098 58.78 205.414 59.112 205.638 59.536C205.87 59.96 205.986 60.44 205.986 60.976C205.986 61.056 205.982 61.144 205.974 61.24C205.966 61.328 205.95 61.432 205.926 61.552H201.114V60.652H205.35L204.954 61C204.954 60.616 204.886 60.292 204.75 60.028C204.614 59.756 204.422 59.548 204.174 59.404C203.926 59.252 203.626 59.176 203.274 59.176C202.906 59.176 202.582 59.256 202.302 59.416C202.022 59.576 201.806 59.8 201.654 60.088C201.502 60.376 201.426 60.716 201.426 61.108C201.426 61.508 201.506 61.86 201.666 62.164C201.826 62.46 202.054 62.692 202.35 62.86C202.646 63.02 202.986 63.1 203.37 63.1C203.69 63.1 203.982 63.044 204.246 62.932C204.518 62.82 204.75 62.652 204.942 62.428L205.638 63.136C205.366 63.456 205.03 63.7 204.63 63.868C204.238 64.036 203.818 64.12 203.37 64.12ZM209.587 64.12C209.067 64.12 208.595 63.992 208.171 63.736C207.747 63.472 207.411 63.116 207.163 62.668C206.923 62.22 206.803 61.716 206.803 61.156C206.803 60.596 206.923 60.092 207.163 59.644C207.411 59.196 207.743 58.84 208.159 58.576C208.583 58.312 209.059 58.18 209.587 58.18C210.019 58.18 210.403 58.272 210.739 58.456C211.083 58.632 211.359 58.88 211.567 59.2C211.775 59.512 211.891 59.876 211.915 60.292V62.008C211.891 62.416 211.775 62.78 211.567 63.1C211.367 63.42 211.095 63.672 210.751 63.856C210.415 64.032 210.027 64.12 209.587 64.12ZM209.767 63.1C210.303 63.1 210.735 62.92 211.063 62.56C211.391 62.192 211.555 61.724 211.555 61.156C211.555 60.764 211.479 60.424 211.327 60.136C211.183 59.84 210.975 59.612 210.703 59.452C210.431 59.284 210.115 59.2 209.755 59.2C209.395 59.2 209.075 59.284 208.795 59.452C208.523 59.62 208.307 59.852 208.147 60.148C207.995 60.436 207.919 60.768 207.919 61.144C207.919 61.528 207.995 61.868 208.147 62.164C208.307 62.452 208.527 62.68 208.807 62.848C209.087 63.016 209.407 63.1 209.767 63.1ZM211.483 64V62.464L211.687 61.072L211.483 59.692V58.3H212.575V64H211.483ZM215.959 64.12C215.639 64.12 215.335 64.08 215.047 64C214.767 63.912 214.507 63.792 214.267 63.64C214.027 63.48 213.819 63.292 213.643 63.076L214.339 62.38C214.547 62.636 214.787 62.828 215.059 62.956C215.331 63.076 215.635 63.136 215.971 63.136C216.307 63.136 216.567 63.08 216.751 62.968C216.935 62.848 217.027 62.684 217.027 62.476C217.027 62.268 216.951 62.108 216.799 61.996C216.655 61.876 216.467 61.78 216.235 61.708C216.003 61.628 215.755 61.552 215.491 61.48C215.235 61.4 214.991 61.3 214.759 61.18C214.527 61.06 214.335 60.896 214.183 60.688C214.039 60.48 213.967 60.204 213.967 59.86C213.967 59.516 214.051 59.22 214.219 58.972C214.387 58.716 214.619 58.52 214.915 58.384C215.219 58.248 215.583 58.18 216.007 58.18C216.455 58.18 216.851 58.26 217.195 58.42C217.547 58.572 217.835 58.804 218.059 59.116L217.363 59.812C217.203 59.604 217.003 59.444 216.763 59.332C216.531 59.22 216.267 59.164 215.971 59.164C215.659 59.164 215.419 59.22 215.251 59.332C215.091 59.436 215.011 59.584 215.011 59.776C215.011 59.968 215.083 60.116 215.227 60.22C215.371 60.324 215.559 60.412 215.791 60.484C216.031 60.556 216.279 60.632 216.535 60.712C216.791 60.784 217.035 60.884 217.267 61.012C217.499 61.14 217.687 61.312 217.831 61.528C217.983 61.744 218.059 62.028 218.059 62.38C218.059 62.916 217.867 63.34 217.483 63.652C217.107 63.964 216.599 64.12 215.959 64.12ZM221.909 64.12C221.341 64.12 220.829 63.992 220.373 63.736C219.917 63.472 219.557 63.116 219.293 62.668C219.029 62.22 218.897 61.712 218.897 61.144C218.897 60.584 219.025 60.08 219.281 59.632C219.545 59.184 219.897 58.832 220.337 58.576C220.785 58.312 221.285 58.18 221.837 58.18C222.365 58.18 222.829 58.3 223.229 58.54C223.637 58.78 223.953 59.112 224.177 59.536C224.409 59.96 224.525 60.44 224.525 60.976C224.525 61.056 224.521 61.144 224.513 61.24C224.505 61.328 224.489 61.432 224.465 61.552H219.653V60.652H223.889L223.493 61C223.493 60.616 223.425 60.292 223.289 60.028C223.153 59.756 222.961 59.548 222.713 59.404C222.465 59.252 222.165 59.176 221.813 59.176C221.445 59.176 221.121 59.256 220.841 59.416C220.561 59.576 220.345 59.8 220.193 60.088C220.041 60.376 219.965 60.716 219.965 61.108C219.965 61.508 220.045 61.86 220.205 62.164C220.365 62.46 220.593 62.692 220.889 62.86C221.185 63.02 221.525 63.1 221.909 63.1C222.229 63.1 222.521 63.044 222.785 62.932C223.057 62.82 223.289 62.652 223.481 62.428L224.177 63.136C223.905 63.456 223.569 63.7 223.169 63.868C222.777 64.036 222.357 64.12 221.909 64.12ZM229.014 64V57.268C229.014 56.892 229.094 56.56 229.254 56.272C229.422 55.976 229.654 55.744 229.95 55.576C230.246 55.4 230.586 55.312 230.97 55.312C231.266 55.312 231.526 55.364 231.75 55.468C231.974 55.564 232.182 55.7 232.374 55.876L231.666 56.584C231.562 56.496 231.454 56.432 231.342 56.392C231.23 56.344 231.106 56.32 230.97 56.32C230.69 56.32 230.474 56.408 230.322 56.584C230.17 56.752 230.094 56.98 230.094 57.268V64H229.014ZM227.61 59.284V58.3H233.022V59.284H227.61ZM232.398 64V58.3H233.49V64H232.398ZM232.938 57.7C232.746 57.7 232.586 57.636 232.458 57.508C232.33 57.372 232.266 57.204 232.266 57.004C232.266 56.812 232.33 56.652 232.458 56.524C232.586 56.388 232.746 56.32 232.938 56.32C233.146 56.32 233.31 56.388 233.43 56.524C233.558 56.652 233.622 56.812 233.622 57.004C233.622 57.204 233.558 57.372 233.43 57.508C233.31 57.636 233.146 57.7 232.938 57.7ZM235.077 64V55.432H236.157V64H235.077ZM237.737 64V55.432H238.817V64H237.737ZM245.186 64.12C244.722 64.12 244.302 64.016 243.926 63.808C243.558 63.592 243.27 63.296 243.062 62.92C242.854 62.544 242.75 62.108 242.75 61.612V58.3H243.83V61.564C243.83 61.876 243.882 62.148 243.986 62.38C244.098 62.604 244.258 62.776 244.466 62.896C244.674 63.016 244.918 63.076 245.198 63.076C245.622 63.076 245.954 62.944 246.194 62.68C246.434 62.408 246.554 62.036 246.554 61.564V58.3H247.634V61.612C247.634 62.108 247.53 62.544 247.322 62.92C247.114 63.296 246.826 63.592 246.458 63.808C246.098 64.016 245.674 64.12 245.186 64.12ZM252.081 64.12C251.649 64.12 251.257 64.032 250.905 63.856C250.561 63.672 250.285 63.42 250.077 63.1C249.869 62.78 249.753 62.416 249.729 62.008V60.292C249.753 59.876 249.869 59.512 250.077 59.2C250.293 58.88 250.573 58.632 250.917 58.456C251.269 58.272 251.657 58.18 252.081 58.18C252.601 58.18 253.069 58.312 253.485 58.576C253.909 58.84 254.241 59.196 254.481 59.644C254.721 60.092 254.841 60.596 254.841 61.156C254.841 61.716 254.721 62.22 254.481 62.668C254.241 63.116 253.909 63.472 253.485 63.736C253.069 63.992 252.601 64.12 252.081 64.12ZM251.901 63.1C252.261 63.1 252.577 63.016 252.849 62.848C253.121 62.68 253.337 62.452 253.497 62.164C253.657 61.868 253.737 61.528 253.737 61.144C253.737 60.768 253.657 60.432 253.497 60.136C253.337 59.84 253.121 59.612 252.849 59.452C252.577 59.284 252.265 59.2 251.913 59.2C251.553 59.2 251.237 59.284 250.965 59.452C250.693 59.612 250.481 59.84 250.329 60.136C250.177 60.432 250.101 60.772 250.101 61.156C250.101 61.532 250.173 61.868 250.317 62.164C250.469 62.452 250.681 62.68 250.953 62.848C251.233 63.016 251.549 63.1 251.901 63.1ZM249.081 66.388V58.3H250.161V59.8L249.957 61.18L250.161 62.572V66.388H249.081ZM259.438 64V55.912H260.518V64H259.438ZM258.034 59.284V58.3H261.922V59.284H258.034ZM267.012 64V60.676C267.012 60.244 266.876 59.888 266.604 59.608C266.332 59.328 265.98 59.188 265.548 59.188C265.26 59.188 265.004 59.252 264.78 59.38C264.556 59.508 264.38 59.684 264.252 59.908C264.124 60.132 264.06 60.388 264.06 60.676L263.616 60.424C263.616 59.992 263.712 59.608 263.904 59.272C264.096 58.936 264.364 58.672 264.708 58.48C265.052 58.28 265.44 58.18 265.872 58.18C266.304 58.18 266.684 58.276 267.012 58.468C267.348 58.66 267.612 58.928 267.804 59.272C267.996 59.616 268.092 60.012 268.092 60.46V64H267.012ZM262.979 64V55.432H264.06V64H262.979ZM272.194 64.12C271.626 64.12 271.114 63.992 270.658 63.736C270.202 63.472 269.842 63.116 269.578 62.668C269.314 62.22 269.182 61.712 269.182 61.144C269.182 60.584 269.31 60.08 269.566 59.632C269.83 59.184 270.182 58.832 270.622 58.576C271.07 58.312 271.57 58.18 272.122 58.18C272.65 58.18 273.114 58.3 273.514 58.54C273.922 58.78 274.238 59.112 274.462 59.536C274.694 59.96 274.81 60.44 274.81 60.976C274.81 61.056 274.806 61.144 274.798 61.24C274.79 61.328 274.774 61.432 274.75 61.552H269.938V60.652H274.174L273.778 61C273.778 60.616 273.71 60.292 273.574 60.028C273.438 59.756 273.246 59.548 272.998 59.404C272.75 59.252 272.45 59.176 272.098 59.176C271.73 59.176 271.406 59.256 271.126 59.416C270.846 59.576 270.63 59.8 270.478 60.088C270.326 60.376 270.25 60.716 270.25 61.108C270.25 61.508 270.33 61.86 270.49 62.164C270.65 62.46 270.878 62.692 271.174 62.86C271.47 63.02 271.81 63.1 272.194 63.1C272.514 63.1 272.806 63.044 273.07 62.932C273.342 62.82 273.574 62.652 273.766 62.428L274.462 63.136C274.19 63.456 273.854 63.7 273.454 63.868C273.062 64.036 272.642 64.12 272.194 64.12ZM279.299 64V57.448C279.299 57.024 279.391 56.656 279.575 56.344C279.759 56.024 280.011 55.772 280.331 55.588C280.659 55.404 281.039 55.312 281.471 55.312C281.799 55.312 282.083 55.368 282.323 55.48C282.563 55.592 282.783 55.756 282.983 55.972L282.275 56.668C282.171 56.556 282.055 56.472 281.927 56.416C281.799 56.352 281.643 56.32 281.459 56.32C281.115 56.32 280.847 56.42 280.655 56.62C280.471 56.82 280.379 57.096 280.379 57.448V64H279.299ZM277.895 59.284V58.3H282.191V59.284H277.895ZM285.552 64.12C284.992 64.12 284.488 63.988 284.04 63.724C283.592 63.46 283.236 63.104 282.972 62.656C282.708 62.2 282.576 61.692 282.576 61.132C282.576 60.58 282.708 60.084 282.972 59.644C283.236 59.196 283.592 58.84 284.04 58.576C284.488 58.312 284.992 58.18 285.552 58.18C286.104 58.18 286.604 58.312 287.052 58.576C287.508 58.832 287.868 59.184 288.132 59.632C288.396 60.08 288.528 60.58 288.528 61.132C288.528 61.692 288.396 62.2 288.132 62.656C287.868 63.104 287.508 63.46 287.052 63.724C286.604 63.988 286.104 64.12 285.552 64.12ZM285.552 63.076C285.912 63.076 286.232 62.992 286.512 62.824C286.792 62.656 287.012 62.428 287.172 62.14C287.332 61.844 287.412 61.508 287.412 61.132C287.412 60.764 287.328 60.436 287.16 60.148C287 59.86 286.78 59.636 286.5 59.476C286.228 59.308 285.912 59.224 285.552 59.224C285.192 59.224 284.872 59.308 284.592 59.476C284.312 59.636 284.092 59.86 283.932 60.148C283.772 60.436 283.692 60.764 283.692 61.132C283.692 61.508 283.772 61.844 283.932 62.14C284.092 62.428 284.312 62.656 284.592 62.824C284.872 62.992 285.192 63.076 285.552 63.076ZM289.745 64V55.432H290.825V64H289.745ZM292.405 64V55.432H293.485V64H292.405ZM297.669 64.12C297.109 64.12 296.605 63.988 296.157 63.724C295.709 63.46 295.353 63.104 295.089 62.656C294.825 62.2 294.693 61.692 294.693 61.132C294.693 60.58 294.825 60.084 295.089 59.644C295.353 59.196 295.709 58.84 296.157 58.576C296.605 58.312 297.109 58.18 297.669 58.18C298.221 58.18 298.721 58.312 299.169 58.576C299.625 58.832 299.985 59.184 300.249 59.632C300.513 60.08 300.645 60.58 300.645 61.132C300.645 61.692 300.513 62.2 300.249 62.656C299.985 63.104 299.625 63.46 299.169 63.724C298.721 63.988 298.221 64.12 297.669 64.12ZM297.669 63.076C298.029 63.076 298.349 62.992 298.629 62.824C298.909 62.656 299.129 62.428 299.289 62.14C299.449 61.844 299.529 61.508 299.529 61.132C299.529 60.764 299.445 60.436 299.277 60.148C299.117 59.86 298.897 59.636 298.617 59.476C298.345 59.308 298.029 59.224 297.669 59.224C297.309 59.224 296.989 59.308 296.709 59.476C296.429 59.636 296.209 59.86 296.049 60.148C295.889 60.436 295.809 60.764 295.809 61.132C295.809 61.508 295.889 61.844 296.049 62.14C296.209 62.428 296.429 62.656 296.709 62.824C296.989 62.992 297.309 63.076 297.669 63.076ZM303.33 64L301.074 58.3H302.202L303.834 62.74H303.474L305.094 58.3H305.718L307.338 62.74H306.978L308.61 58.3H309.738L307.494 64H306.858L305.214 59.692H305.61L303.954 64H303.33ZM310.617 64V58.3H311.697V64H310.617ZM311.157 57.16C310.957 57.16 310.793 57.096 310.665 56.968C310.537 56.832 310.473 56.664 310.473 56.464C310.473 56.272 310.537 56.112 310.665 55.984C310.793 55.848 310.957 55.78 311.157 55.78C311.357 55.78 311.521 55.848 311.649 55.984C311.777 56.112 311.841 56.272 311.841 56.464C311.841 56.664 311.777 56.832 311.649 56.968C311.521 57.096 311.357 57.16 311.157 57.16ZM317.32 64V60.676C317.32 60.244 317.184 59.888 316.912 59.608C316.64 59.328 316.288 59.188 315.856 59.188C315.568 59.188 315.312 59.252 315.088 59.38C314.864 59.508 314.688 59.684 314.56 59.908C314.432 60.132 314.368 60.388 314.368 60.676L313.924 60.424C313.924 59.992 314.02 59.608 314.212 59.272C314.404 58.936 314.672 58.672 315.016 58.48C315.36 58.28 315.748 58.18 316.18 58.18C316.612 58.18 316.992 58.288 317.32 58.504C317.656 58.72 317.92 59.004 318.112 59.356C318.304 59.7 318.4 60.068 318.4 60.46V64H317.32ZM313.288 64V58.3H314.368V64H313.288ZM322.226 66.508C321.642 66.508 321.122 66.4 320.666 66.184C320.218 65.968 319.858 65.664 319.586 65.272L320.282 64.564C320.514 64.86 320.79 65.084 321.11 65.236C321.43 65.396 321.81 65.476 322.25 65.476C322.834 65.476 323.294 65.32 323.63 65.008C323.974 64.704 324.146 64.292 324.146 63.772V62.356L324.338 61.072L324.146 59.8V58.3H325.226V63.772C325.226 64.316 325.098 64.792 324.842 65.2C324.594 65.608 324.242 65.928 323.786 66.16C323.338 66.392 322.818 66.508 322.226 66.508ZM322.226 63.904C321.706 63.904 321.238 63.78 320.822 63.532C320.414 63.284 320.09 62.944 319.85 62.512C319.61 62.072 319.49 61.58 319.49 61.036C319.49 60.492 319.61 60.008 319.85 59.584C320.09 59.152 320.414 58.812 320.822 58.564C321.238 58.308 321.706 58.18 322.226 58.18C322.674 58.18 323.07 58.268 323.414 58.444C323.758 58.62 324.03 58.868 324.23 59.188C324.438 59.5 324.55 59.868 324.566 60.292V61.804C324.542 62.22 324.426 62.588 324.218 62.908C324.018 63.22 323.746 63.464 323.402 63.64C323.058 63.816 322.666 63.904 322.226 63.904ZM322.442 62.884C322.794 62.884 323.102 62.808 323.366 62.656C323.638 62.504 323.846 62.292 323.99 62.02C324.134 61.74 324.206 61.416 324.206 61.048C324.206 60.68 324.13 60.36 323.978 60.088C323.834 59.808 323.63 59.592 323.366 59.44C323.102 59.28 322.79 59.2 322.43 59.2C322.07 59.2 321.754 59.28 321.482 59.44C321.21 59.592 320.994 59.808 320.834 60.088C320.682 60.36 320.606 60.676 320.606 61.036C320.606 61.396 320.682 61.716 320.834 61.996C320.994 62.276 321.21 62.496 321.482 62.656C321.762 62.808 322.082 62.884 322.442 62.884ZM191.608 79V72.448C191.608 72.024 191.7 71.656 191.884 71.344C192.068 71.024 192.32 70.772 192.64 70.588C192.968 70.404 193.348 70.312 193.78 70.312C194.108 70.312 194.392 70.368 194.632 70.48C194.872 70.592 195.092 70.756 195.292 70.972L194.584 71.668C194.48 71.556 194.364 71.472 194.236 71.416C194.108 71.352 193.952 71.32 193.768 71.32C193.424 71.32 193.156 71.42 192.964 71.62C192.78 71.82 192.688 72.096 192.688 72.448V79H191.608ZM190.204 74.284V73.3H194.5V74.284H190.204ZM197.861 79.12C197.301 79.12 196.797 78.988 196.349 78.724C195.901 78.46 195.545 78.104 195.281 77.656C195.017 77.2 194.885 76.692 194.885 76.132C194.885 75.58 195.017 75.084 195.281 74.644C195.545 74.196 195.901 73.84 196.349 73.576C196.797 73.312 197.301 73.18 197.861 73.18C198.413 73.18 198.913 73.312 199.361 73.576C199.817 73.832 200.177 74.184 200.441 74.632C200.705 75.08 200.837 75.58 200.837 76.132C200.837 76.692 200.705 77.2 200.441 77.656C200.177 78.104 199.817 78.46 199.361 78.724C198.913 78.988 198.413 79.12 197.861 79.12ZM197.861 78.076C198.221 78.076 198.541 77.992 198.821 77.824C199.101 77.656 199.321 77.428 199.481 77.14C199.641 76.844 199.721 76.508 199.721 76.132C199.721 75.764 199.637 75.436 199.469 75.148C199.309 74.86 199.089 74.636 198.809 74.476C198.537 74.308 198.221 74.224 197.861 74.224C197.501 74.224 197.181 74.308 196.901 74.476C196.621 74.636 196.401 74.86 196.241 75.148C196.081 75.436 196.001 75.764 196.001 76.132C196.001 76.508 196.081 76.844 196.241 77.14C196.401 77.428 196.621 77.656 196.901 77.824C197.181 77.992 197.501 78.076 197.861 78.076ZM202.054 79V73.3H203.134V79H202.054ZM203.134 75.748L202.726 75.568C202.726 74.84 202.894 74.26 203.23 73.828C203.566 73.396 204.05 73.18 204.682 73.18C204.97 73.18 205.23 73.232 205.462 73.336C205.694 73.432 205.91 73.596 206.11 73.828L205.402 74.56C205.282 74.432 205.15 74.34 205.006 74.284C204.862 74.228 204.694 74.2 204.502 74.2C204.102 74.2 203.774 74.328 203.518 74.584C203.262 74.84 203.134 75.228 203.134 75.748ZM206.894 79V73.3H207.974V79H206.894ZM210.746 79V75.556C210.746 75.132 210.614 74.8 210.35 74.56C210.094 74.312 209.77 74.188 209.378 74.188C209.114 74.188 208.878 74.244 208.67 74.356C208.462 74.468 208.294 74.624 208.166 74.824C208.038 75.024 207.974 75.264 207.974 75.544L207.53 75.328C207.53 74.896 207.622 74.52 207.806 74.2C207.998 73.88 208.258 73.632 208.586 73.456C208.914 73.272 209.282 73.18 209.69 73.18C210.09 73.18 210.45 73.268 210.77 73.444C211.098 73.62 211.354 73.868 211.538 74.188C211.73 74.508 211.826 74.888 211.826 75.328V79H210.746ZM214.598 79V75.556C214.598 75.132 214.466 74.8 214.202 74.56C213.946 74.312 213.626 74.188 213.242 74.188C212.978 74.188 212.738 74.244 212.522 74.356C212.314 74.468 212.146 74.624 212.018 74.824C211.89 75.024 211.826 75.264 211.826 75.544L211.214 75.328C211.238 74.888 211.354 74.512 211.562 74.2C211.778 73.88 212.054 73.632 212.39 73.456C212.726 73.272 213.094 73.18 213.494 73.18C213.91 73.18 214.282 73.268 214.61 73.444C214.938 73.62 215.198 73.868 215.39 74.188C215.59 74.508 215.69 74.892 215.69 75.34V79H214.598ZM220.531 79V70.912H221.611V79H220.531ZM219.127 74.284V73.3H223.015V74.284H219.127ZM226.501 79.12C225.941 79.12 225.437 78.988 224.989 78.724C224.541 78.46 224.185 78.104 223.921 77.656C223.657 77.2 223.525 76.692 223.525 76.132C223.525 75.58 223.657 75.084 223.921 74.644C224.185 74.196 224.541 73.84 224.989 73.576C225.437 73.312 225.941 73.18 226.501 73.18C227.053 73.18 227.553 73.312 228.001 73.576C228.457 73.832 228.817 74.184 229.081 74.632C229.345 75.08 229.477 75.58 229.477 76.132C229.477 76.692 229.345 77.2 229.081 77.656C228.817 78.104 228.457 78.46 228.001 78.724C227.553 78.988 227.053 79.12 226.501 79.12ZM226.501 78.076C226.861 78.076 227.181 77.992 227.461 77.824C227.741 77.656 227.961 77.428 228.121 77.14C228.281 76.844 228.361 76.508 228.361 76.132C228.361 75.764 228.277 75.436 228.109 75.148C227.949 74.86 227.729 74.636 227.449 74.476C227.177 74.308 226.861 74.224 226.501 74.224C226.141 74.224 225.821 74.308 225.541 74.476C225.261 74.636 225.041 74.86 224.881 75.148C224.721 75.436 224.641 75.764 224.641 76.132C224.641 76.508 224.721 76.844 224.881 77.14C225.041 77.428 225.261 77.656 225.541 77.824C225.821 77.992 226.141 78.076 226.501 78.076ZM235.794 79.12C235.234 79.12 234.726 78.988 234.27 78.724C233.822 78.46 233.466 78.104 233.202 77.656C232.946 77.2 232.818 76.696 232.818 76.144C232.818 75.584 232.946 75.08 233.202 74.632C233.466 74.184 233.822 73.832 234.27 73.576C234.726 73.312 235.234 73.18 235.794 73.18C236.234 73.18 236.642 73.264 237.018 73.432C237.394 73.592 237.718 73.828 237.99 74.14L237.27 74.86C237.094 74.652 236.878 74.496 236.622 74.392C236.374 74.28 236.098 74.224 235.794 74.224C235.434 74.224 235.114 74.308 234.834 74.476C234.554 74.636 234.334 74.86 234.174 75.148C234.014 75.436 233.934 75.768 233.934 76.144C233.934 76.52 234.014 76.852 234.174 77.14C234.334 77.428 234.554 77.656 234.834 77.824C235.114 77.992 235.434 78.076 235.794 78.076C236.098 78.076 236.374 78.024 236.622 77.92C236.878 77.808 237.098 77.648 237.282 77.44L237.99 78.16C237.726 78.464 237.402 78.7 237.018 78.868C236.642 79.036 236.234 79.12 235.794 79.12ZM241.548 79.12C240.988 79.12 240.484 78.988 240.036 78.724C239.588 78.46 239.232 78.104 238.968 77.656C238.704 77.2 238.572 76.692 238.572 76.132C238.572 75.58 238.704 75.084 238.968 74.644C239.232 74.196 239.588 73.84 240.036 73.576C240.484 73.312 240.988 73.18 241.548 73.18C242.1 73.18 242.6 73.312 243.048 73.576C243.504 73.832 243.864 74.184 244.128 74.632C244.392 75.08 244.524 75.58 244.524 76.132C244.524 76.692 244.392 77.2 244.128 77.656C243.864 78.104 243.504 78.46 243.048 78.724C242.6 78.988 242.1 79.12 241.548 79.12ZM241.548 78.076C241.908 78.076 242.228 77.992 242.508 77.824C242.788 77.656 243.008 77.428 243.168 77.14C243.328 76.844 243.408 76.508 243.408 76.132C243.408 75.764 243.324 75.436 243.156 75.148C242.996 74.86 242.776 74.636 242.496 74.476C242.224 74.308 241.908 74.224 241.548 74.224C241.188 74.224 240.868 74.308 240.588 74.476C240.308 74.636 240.088 74.86 239.928 75.148C239.768 75.436 239.688 75.764 239.688 76.132C239.688 76.508 239.768 76.844 239.928 77.14C240.088 77.428 240.308 77.656 240.588 77.824C240.868 77.992 241.188 78.076 241.548 78.076ZM249.773 79V75.676C249.773 75.244 249.637 74.888 249.365 74.608C249.093 74.328 248.741 74.188 248.309 74.188C248.021 74.188 247.765 74.252 247.541 74.38C247.317 74.508 247.141 74.684 247.013 74.908C246.885 75.132 246.821 75.388 246.821 75.676L246.377 75.424C246.377 74.992 246.473 74.608 246.665 74.272C246.857 73.936 247.125 73.672 247.469 73.48C247.813 73.28 248.201 73.18 248.633 73.18C249.065 73.18 249.445 73.288 249.773 73.504C250.109 73.72 250.373 74.004 250.565 74.356C250.757 74.7 250.853 75.068 250.853 75.46V79H249.773ZM245.741 79V73.3H246.821V79H245.741ZM253.121 79V70.912H254.201V79H253.121ZM251.717 74.284V73.3H255.605V74.284H251.717ZM258.911 79.12C258.391 79.12 257.919 78.992 257.495 78.736C257.071 78.472 256.735 78.116 256.487 77.668C256.247 77.22 256.127 76.716 256.127 76.156C256.127 75.596 256.247 75.092 256.487 74.644C256.735 74.196 257.067 73.84 257.483 73.576C257.907 73.312 258.383 73.18 258.911 73.18C259.343 73.18 259.727 73.272 260.063 73.456C260.407 73.632 260.683 73.88 260.891 74.2C261.099 74.512 261.215 74.876 261.239 75.292V77.008C261.215 77.416 261.099 77.78 260.891 78.1C260.691 78.42 260.419 78.672 260.075 78.856C259.739 79.032 259.351 79.12 258.911 79.12ZM259.091 78.1C259.627 78.1 260.059 77.92 260.387 77.56C260.715 77.192 260.879 76.724 260.879 76.156C260.879 75.764 260.803 75.424 260.651 75.136C260.507 74.84 260.299 74.612 260.027 74.452C259.755 74.284 259.439 74.2 259.079 74.2C258.719 74.2 258.399 74.284 258.119 74.452C257.847 74.62 257.631 74.852 257.471 75.148C257.319 75.436 257.243 75.768 257.243 76.144C257.243 76.528 257.319 76.868 257.471 77.164C257.631 77.452 257.851 77.68 258.131 77.848C258.411 78.016 258.731 78.1 259.091 78.1ZM260.807 79V77.464L261.011 76.072L260.807 74.692V73.3H261.899V79H260.807ZM266.076 79.12C265.516 79.12 265.008 78.988 264.552 78.724C264.104 78.46 263.748 78.104 263.484 77.656C263.228 77.2 263.1 76.696 263.1 76.144C263.1 75.584 263.228 75.08 263.484 74.632C263.748 74.184 264.104 73.832 264.552 73.576C265.008 73.312 265.516 73.18 266.076 73.18C266.516 73.18 266.924 73.264 267.3 73.432C267.676 73.592 268 73.828 268.272 74.14L267.552 74.86C267.376 74.652 267.16 74.496 266.904 74.392C266.656 74.28 266.38 74.224 266.076 74.224C265.716 74.224 265.396 74.308 265.116 74.476C264.836 74.636 264.616 74.86 264.456 75.148C264.296 75.436 264.216 75.768 264.216 76.144C264.216 76.52 264.296 76.852 264.456 77.14C264.616 77.428 264.836 77.656 265.116 77.824C265.396 77.992 265.716 78.076 266.076 78.076C266.38 78.076 266.656 78.024 266.904 77.92C267.16 77.808 267.38 77.648 267.564 77.44L268.272 78.16C268.008 78.464 267.684 78.7 267.3 78.868C266.924 79.036 266.516 79.12 266.076 79.12ZM270.148 79V70.912H271.228V79H270.148ZM268.744 74.284V73.3H272.632V74.284H268.744ZM278.059 79.048L275.587 73.3H276.787L278.623 77.8H278.239L280.171 73.3H281.371L278.707 79.048H278.059ZM276.427 81.388L278.107 77.944L278.707 79.048L277.627 81.388H276.427ZM284.638 79.12C284.078 79.12 283.574 78.988 283.126 78.724C282.678 78.46 282.322 78.104 282.058 77.656C281.794 77.2 281.662 76.692 281.662 76.132C281.662 75.58 281.794 75.084 282.058 74.644C282.322 74.196 282.678 73.84 283.126 73.576C283.574 73.312 284.078 73.18 284.638 73.18C285.19 73.18 285.69 73.312 286.138 73.576C286.594 73.832 286.954 74.184 287.218 74.632C287.482 75.08 287.614 75.58 287.614 76.132C287.614 76.692 287.482 77.2 287.218 77.656C286.954 78.104 286.594 78.46 286.138 78.724C285.69 78.988 285.19 79.12 284.638 79.12ZM284.638 78.076C284.998 78.076 285.318 77.992 285.598 77.824C285.878 77.656 286.098 77.428 286.258 77.14C286.418 76.844 286.498 76.508 286.498 76.132C286.498 75.764 286.414 75.436 286.246 75.148C286.086 74.86 285.866 74.636 285.586 74.476C285.314 74.308 284.998 74.224 284.638 74.224C284.278 74.224 283.958 74.308 283.678 74.476C283.398 74.636 283.178 74.86 283.018 75.148C282.858 75.436 282.778 75.764 282.778 76.132C282.778 76.508 282.858 76.844 283.018 77.14C283.178 77.428 283.398 77.656 283.678 77.824C283.958 77.992 284.278 78.076 284.638 78.076ZM291.123 79.12C290.659 79.12 290.239 79.016 289.863 78.808C289.495 78.592 289.207 78.296 288.999 77.92C288.791 77.544 288.687 77.108 288.687 76.612V73.3H289.767V76.564C289.767 76.876 289.819 77.148 289.923 77.38C290.035 77.604 290.195 77.776 290.403 77.896C290.611 78.016 290.855 78.076 291.135 78.076C291.559 78.076 291.891 77.944 292.131 77.68C292.371 77.408 292.491 77.036 292.491 76.564V73.3H293.571V76.612C293.571 77.108 293.467 77.544 293.259 77.92C293.051 78.296 292.763 78.592 292.395 78.808C292.035 79.016 291.611 79.12 291.123 79.12ZM300.515 79.12C300.083 79.12 299.691 79.032 299.339 78.856C298.995 78.672 298.719 78.42 298.511 78.1C298.303 77.78 298.187 77.416 298.163 77.008V75.292C298.187 74.876 298.303 74.512 298.511 74.2C298.727 73.88 299.007 73.632 299.351 73.456C299.703 73.272 300.091 73.18 300.515 73.18C301.035 73.18 301.503 73.312 301.919 73.576C302.343 73.84 302.675 74.196 302.915 74.644C303.155 75.092 303.275 75.596 303.275 76.156C303.275 76.716 303.155 77.22 302.915 77.668C302.675 78.116 302.343 78.472 301.919 78.736C301.503 78.992 301.035 79.12 300.515 79.12ZM300.335 78.1C300.695 78.1 301.011 78.016 301.283 77.848C301.555 77.68 301.771 77.452 301.931 77.164C302.091 76.868 302.171 76.528 302.171 76.144C302.171 75.768 302.091 75.432 301.931 75.136C301.771 74.84 301.555 74.612 301.283 74.452C301.011 74.284 300.699 74.2 300.347 74.2C299.987 74.2 299.671 74.284 299.399 74.452C299.127 74.612 298.915 74.84 298.763 75.136C298.611 75.432 298.535 75.772 298.535 76.156C298.535 76.532 298.607 76.868 298.751 77.164C298.903 77.452 299.115 77.68 299.387 77.848C299.667 78.016 299.983 78.1 300.335 78.1ZM297.515 79V70.432H298.595V74.692L298.391 76.072L298.595 77.464V79H297.515ZM306.923 79.12C306.403 79.12 305.931 78.992 305.507 78.736C305.083 78.472 304.747 78.116 304.499 77.668C304.259 77.22 304.139 76.716 304.139 76.156C304.139 75.596 304.259 75.092 304.499 74.644C304.747 74.196 305.079 73.84 305.495 73.576C305.919 73.312 306.395 73.18 306.923 73.18C307.355 73.18 307.739 73.272 308.075 73.456C308.419 73.632 308.695 73.88 308.903 74.2C309.111 74.512 309.227 74.876 309.251 75.292V77.008C309.227 77.416 309.111 77.78 308.903 78.1C308.703 78.42 308.431 78.672 308.087 78.856C307.751 79.032 307.363 79.12 306.923 79.12ZM307.103 78.1C307.639 78.1 308.071 77.92 308.399 77.56C308.727 77.192 308.891 76.724 308.891 76.156C308.891 75.764 308.815 75.424 308.663 75.136C308.519 74.84 308.311 74.612 308.039 74.452C307.767 74.284 307.451 74.2 307.091 74.2C306.731 74.2 306.411 74.284 306.131 74.452C305.859 74.62 305.643 74.852 305.483 75.148C305.331 75.436 305.255 75.768 305.255 76.144C305.255 76.528 305.331 76.868 305.483 77.164C305.643 77.452 305.863 77.68 306.143 77.848C306.423 78.016 306.743 78.1 307.103 78.1ZM308.819 79V77.464L309.023 76.072L308.819 74.692V73.3H309.911V79H308.819ZM314.087 79.12C313.527 79.12 313.019 78.988 312.563 78.724C312.115 78.46 311.759 78.104 311.495 77.656C311.239 77.2 311.111 76.696 311.111 76.144C311.111 75.584 311.239 75.08 311.495 74.632C311.759 74.184 312.115 73.832 312.563 73.576C313.019 73.312 313.527 73.18 314.087 73.18C314.527 73.18 314.935 73.264 315.311 73.432C315.687 73.592 316.011 73.828 316.283 74.14L315.563 74.86C315.387 74.652 315.171 74.496 314.915 74.392C314.667 74.28 314.391 74.224 314.087 74.224C313.727 74.224 313.407 74.308 313.127 74.476C312.847 74.636 312.627 74.86 312.467 75.148C312.307 75.436 312.227 75.768 312.227 76.144C312.227 76.52 312.307 76.852 312.467 77.14C312.627 77.428 312.847 77.656 313.127 77.824C313.407 77.992 313.727 78.076 314.087 78.076C314.391 78.076 314.667 78.024 314.915 77.92C315.171 77.808 315.391 77.648 315.575 77.44L316.283 78.16C316.019 78.464 315.695 78.7 315.311 78.868C314.935 79.036 314.527 79.12 314.087 79.12ZM321.003 79L318.339 76.084L320.979 73.3H322.287L319.347 76.372L319.395 75.748L322.395 79H321.003ZM317.354 79V70.432H318.435V79H317.354ZM324.092 79.12C323.868 79.12 323.68 79.044 323.528 78.892C323.384 78.732 323.312 78.544 323.312 78.328C323.312 78.104 323.384 77.92 323.528 77.776C323.68 77.624 323.868 77.548 324.092 77.548C324.316 77.548 324.5 77.624 324.644 77.776C324.796 77.92 324.872 78.104 324.872 78.328C324.872 78.544 324.796 78.732 324.644 78.892C324.5 79.044 324.316 79.12 324.092 79.12Z" fill="#1D212B"/>
<g filter="url(#filter0_d_325_350)">
<rect x="154" y="98" width="280" height="35" rx="8" fill="white"/>
<rect x="154.5" y="98.5" width="279" height="34" rx="7.5" stroke="#DDDEDF"/>
<path d="M170.984 120V111.672H171.776L172.112 112.98V120H170.984ZM176.744 120L171.632 113.172L171.776 111.672L176.9 118.488L176.744 120ZM176.744 120L176.408 118.764V111.672H177.536V120H176.744ZM181.736 120.12C181.216 120.12 180.744 119.992 180.32 119.736C179.896 119.472 179.56 119.116 179.312 118.668C179.072 118.22 178.952 117.716 178.952 117.156C178.952 116.596 179.072 116.092 179.312 115.644C179.56 115.196 179.892 114.84 180.308 114.576C180.732 114.312 181.208 114.18 181.736 114.18C182.168 114.18 182.552 114.272 182.888 114.456C183.232 114.632 183.508 114.88 183.716 115.2C183.924 115.512 184.04 115.876 184.064 116.292V118.008C184.04 118.416 183.924 118.78 183.716 119.1C183.516 119.42 183.244 119.672 182.9 119.856C182.564 120.032 182.176 120.12 181.736 120.12ZM181.916 119.1C182.452 119.1 182.884 118.92 183.212 118.56C183.54 118.192 183.704 117.724 183.704 117.156C183.704 116.764 183.628 116.424 183.476 116.136C183.332 115.84 183.124 115.612 182.852 115.452C182.58 115.284 182.264 115.2 181.904 115.2C181.544 115.2 181.224 115.284 180.944 115.452C180.672 115.62 180.456 115.852 180.296 116.148C180.144 116.436 180.068 116.768 180.068 117.144C180.068 117.528 180.144 117.868 180.296 118.164C180.456 118.452 180.676 118.68 180.956 118.848C181.236 119.016 181.556 119.1 181.916 119.1ZM183.632 120V118.464L183.836 117.072L183.632 115.692V114.3H184.724V120H183.632ZM186.296 120V114.3H187.376V120H186.296ZM190.148 120V116.556C190.148 116.132 190.016 115.8 189.752 115.56C189.496 115.312 189.172 115.188 188.78 115.188C188.516 115.188 188.28 115.244 188.072 115.356C187.864 115.468 187.696 115.624 187.568 115.824C187.44 116.024 187.376 116.264 187.376 116.544L186.932 116.328C186.932 115.896 187.024 115.52 187.208 115.2C187.4 114.88 187.66 114.632 187.988 114.456C188.316 114.272 188.684 114.18 189.092 114.18C189.492 114.18 189.852 114.268 190.172 114.444C190.5 114.62 190.756 114.868 190.94 115.188C191.132 115.508 191.228 115.888 191.228 116.328V120H190.148ZM194 120V116.556C194 116.132 193.868 115.8 193.604 115.56C193.348 115.312 193.028 115.188 192.644 115.188C192.38 115.188 192.14 115.244 191.924 115.356C191.716 115.468 191.548 115.624 191.42 115.824C191.292 116.024 191.228 116.264 191.228 116.544L190.616 116.328C190.64 115.888 190.756 115.512 190.964 115.2C191.18 114.88 191.456 114.632 191.792 114.456C192.128 114.272 192.496 114.18 192.896 114.18C193.312 114.18 193.684 114.268 194.012 114.444C194.34 114.62 194.6 114.868 194.792 115.188C194.992 115.508 195.092 115.892 195.092 116.34V120H194ZM199.202 120.12C198.634 120.12 198.122 119.992 197.666 119.736C197.21 119.472 196.85 119.116 196.586 118.668C196.322 118.22 196.19 117.712 196.19 117.144C196.19 116.584 196.318 116.08 196.574 115.632C196.838 115.184 197.19 114.832 197.63 114.576C198.078 114.312 198.578 114.18 199.13 114.18C199.658 114.18 200.122 114.3 200.522 114.54C200.93 114.78 201.246 115.112 201.47 115.536C201.702 115.96 201.818 116.44 201.818 116.976C201.818 117.056 201.814 117.144 201.806 117.24C201.798 117.328 201.782 117.432 201.758 117.552H196.946V116.652H201.182L200.786 117C200.786 116.616 200.718 116.292 200.582 116.028C200.446 115.756 200.254 115.548 200.006 115.404C199.758 115.252 199.458 115.176 199.106 115.176C198.738 115.176 198.414 115.256 198.134 115.416C197.854 115.576 197.638 115.8 197.486 116.088C197.334 116.376 197.258 116.716 197.258 117.108C197.258 117.508 197.338 117.86 197.498 118.164C197.658 118.46 197.886 118.692 198.182 118.86C198.478 119.02 198.818 119.1 199.202 119.1C199.522 119.1 199.814 119.044 200.078 118.932C200.35 118.82 200.582 118.652 200.774 118.428L201.47 119.136C201.198 119.456 200.862 119.7 200.462 119.868C200.07 120.036 199.65 120.12 199.202 120.12Z" fill="#8E9095"/>
</g>
<g filter="url(#filter1_d_325_350)">
<rect x="154" y="145" width="280" height="35" rx="8" fill="white"/>
<rect x="154.5" y="145.5" width="279" height="34" rx="7.5" stroke="#DDDEDF"/>
<path d="M170.984 167V158.672H172.112V167H170.984ZM171.752 167V165.968H176.528V167H171.752ZM171.752 163.232V162.248H176.132V163.232H171.752ZM171.752 159.704V158.672H176.468V159.704H171.752ZM177.87 167V161.3H178.95V167H177.87ZM181.722 167V163.556C181.722 163.132 181.59 162.8 181.326 162.56C181.07 162.312 180.746 162.188 180.354 162.188C180.09 162.188 179.854 162.244 179.646 162.356C179.438 162.468 179.27 162.624 179.142 162.824C179.014 163.024 178.95 163.264 178.95 163.544L178.506 163.328C178.506 162.896 178.598 162.52 178.782 162.2C178.974 161.88 179.234 161.632 179.562 161.456C179.89 161.272 180.258 161.18 180.666 161.18C181.066 161.18 181.426 161.268 181.746 161.444C182.074 161.62 182.33 161.868 182.514 162.188C182.706 162.508 182.802 162.888 182.802 163.328V167H181.722ZM185.574 167V163.556C185.574 163.132 185.442 162.8 185.178 162.56C184.922 162.312 184.602 162.188 184.218 162.188C183.954 162.188 183.714 162.244 183.498 162.356C183.29 162.468 183.122 162.624 182.994 162.824C182.866 163.024 182.802 163.264 182.802 163.544L182.19 163.328C182.214 162.888 182.33 162.512 182.538 162.2C182.754 161.88 183.03 161.632 183.366 161.456C183.702 161.272 184.07 161.18 184.47 161.18C184.886 161.18 185.258 161.268 185.586 161.444C185.914 161.62 186.174 161.868 186.366 162.188C186.566 162.508 186.666 162.892 186.666 163.34V167H185.574ZM190.56 167.12C190.04 167.12 189.568 166.992 189.144 166.736C188.72 166.472 188.384 166.116 188.136 165.668C187.896 165.22 187.776 164.716 187.776 164.156C187.776 163.596 187.896 163.092 188.136 162.644C188.384 162.196 188.716 161.84 189.132 161.576C189.556 161.312 190.032 161.18 190.56 161.18C190.992 161.18 191.376 161.272 191.712 161.456C192.056 161.632 192.332 161.88 192.54 162.2C192.748 162.512 192.864 162.876 192.888 163.292V165.008C192.864 165.416 192.748 165.78 192.54 166.1C192.34 166.42 192.068 166.672 191.724 166.856C191.388 167.032 191 167.12 190.56 167.12ZM190.74 166.1C191.276 166.1 191.708 165.92 192.036 165.56C192.364 165.192 192.528 164.724 192.528 164.156C192.528 163.764 192.452 163.424 192.3 163.136C192.156 162.84 191.948 162.612 191.676 162.452C191.404 162.284 191.088 162.2 190.728 162.2C190.368 162.2 190.048 162.284 189.768 162.452C189.496 162.62 189.28 162.852 189.12 163.148C188.968 163.436 188.892 163.768 188.892 164.144C188.892 164.528 188.968 164.868 189.12 165.164C189.28 165.452 189.5 165.68 189.78 165.848C190.06 166.016 190.38 166.1 190.74 166.1ZM192.456 167V165.464L192.66 164.072L192.456 162.692V161.3H193.548V167H192.456ZM195.132 167V161.3H196.212V167H195.132ZM195.672 160.16C195.472 160.16 195.308 160.096 195.18 159.968C195.052 159.832 194.988 159.664 194.988 159.464C194.988 159.272 195.052 159.112 195.18 158.984C195.308 158.848 195.472 158.78 195.672 158.78C195.872 158.78 196.036 158.848 196.164 158.984C196.292 159.112 196.356 159.272 196.356 159.464C196.356 159.664 196.292 159.832 196.164 159.968C196.036 160.096 195.872 160.16 195.672 160.16ZM197.804 167V158.432H198.884V167H197.804Z" fill="#8E9095"/>
</g>
</g>
<defs>
<filter id="filter0_d_325_350" x="151" y="95" width="286" height="41" filterUnits="userSpaceOnUse" color-interpolation-filters="sRGB">
<feFlood flood-opacity="0" result="BackgroundImageFix"/>
<feColorMatrix in="SourceAlpha" type="matrix" values="0 0 0 0 0 0 0 0 0 0 0 0 0 0 0 0 0 0 127 0" result="hardAlpha"/>
<feMorphology radius="3" operator="dilate" in="SourceAlpha" result="effect1_dropShadow_325_350"/>
<feOffset/>
<feColorMatrix type="matrix" values="0 0 0 0 0.937255 0 0 0 0 0.278431 0 0 0 0 0.435294 0 0 0 0.1 0"/>
<feBlend mode="normal" in2="BackgroundImageFix" result="effect1_dropShadow_325_350"/>
<feBlend mode="normal" in="SourceGraphic" in2="effect1_dropShadow_325_350" result="shape"/>
</filter>
<filter id="filter1_d_325_350" x="151" y="142" width="286" height="41" filterUnits="userSpaceOnUse" color-interpolation-filters="sRGB">
<feFlood flood-opacity="0" result="BackgroundImageFix"/>
<feColorMatrix in="SourceAlpha" type="matrix" values="0 0 0 0 0 0 0 0 0 0 0 0 0 0 0 0 0 0 127 0" result="hardAlpha"/>
<feMorphology radius="3" operator="dilate" in="SourceAlpha" result="effect1_dropShadow_325_350"/>
<feOffset/>
<feColorMatrix type="matrix" values="0 0 0 0 0.937255 0 0 0 0 0.278431 0 0 0 0 0.435294 0 0 0 0.1 0"/>
<feBlend mode="normal" in2="BackgroundImageFix" result="effect1_dropShadow_325_350"/>
<feBlend mode="normal" in="SourceGraphic" in2="effect1_dropShadow_325_350" result="shape"/>
</filter>
<clipPath id="clip0_325_350">
<path d="M0 16C0 7.16345 7.16344 0 16 0H344C352.837 0 360 7.16344 360 16V198H0V16Z" fill="white"/>
</clipPath>
</defs>
</svg>
