<svg width="360" height="198" viewBox="0 0 360 198" fill="none" xmlns="http://www.w3.org/2000/svg">
<g clip-path="url(#clip0_473_371)">
<path d="M0 16C0 7.16345 7.16344 0 16 0H344C352.837 0 360 7.16344 360 16V198H0V16Z" fill="#E6E6E6"/>
<path d="M134 44C134 39.5817 137.582 36 142 36H446C450.418 36 454 39.5817 454 44V202H134V44Z" fill="white"/>
<path d="M161.453 54.7127C161.828 53.7624 163.172 53.7625 163.547 54.7127L164.708 57.6573C164.823 57.9474 165.053 58.1771 165.343 58.2915L168.287 59.4528C169.238 59.8276 169.238 61.1724 168.287 61.5472L165.343 62.7085C165.053 62.8229 164.823 63.0526 164.708 63.3427L163.547 66.2873C163.172 67.2376 161.828 67.2376 161.453 66.2873L160.291 63.3427C160.177 63.0526 159.947 62.8229 159.657 62.7085L156.713 61.5472C155.762 61.1724 155.762 59.8276 156.713 59.4528L159.657 58.2915C159.947 58.1771 160.177 57.9474 160.291 57.6573L161.453 54.7127Z" fill="#7F4BD3"/>
<path d="M170.924 65.3916C171.13 64.8695 171.869 64.8695 172.075 65.3916L172.976 67.6753C173.039 67.8348 173.165 67.961 173.325 68.0239L175.608 68.9245C176.13 69.1305 176.13 69.8695 175.608 70.0755L173.325 70.9761C173.165 71.039 173.039 71.1652 172.976 71.3247L172.075 73.6084C171.869 74.1305 171.13 74.1305 170.924 73.6084L170.024 71.3247C169.961 71.1652 169.835 71.039 169.675 70.9761L167.392 70.0755C166.869 69.8695 166.869 69.1305 167.392 68.9245L169.675 68.0239C169.835 67.961 169.961 67.8348 170.024 67.6753L170.924 65.3916Z" fill="#7F4BD3"/>
<path d="M190.984 64V55.672H192.112V64H190.984ZM191.752 64V62.968H196.216V64H191.752ZM199.807 64.12C199.239 64.12 198.727 63.992 198.271 63.736C197.815 63.472 197.455 63.116 197.191 62.668C196.927 62.22 196.795 61.712 196.795 61.144C196.795 60.584 196.923 60.08 197.179 59.632C197.443 59.184 197.795 58.832 198.235 58.576C198.683 58.312 199.183 58.18 199.735 58.18C200.263 58.18 200.727 58.3 201.127 58.54C201.535 58.78 201.851 59.112 202.075 59.536C202.307 59.96 202.423 60.44 202.423 60.976C202.423 61.056 202.419 61.144 202.411 61.24C202.403 61.328 202.387 61.432 202.363 61.552H197.551V60.652H201.787L201.391 61C201.391 60.616 201.323 60.292 201.187 60.028C201.051 59.756 200.859 59.548 200.611 59.404C200.363 59.252 200.063 59.176 199.711 59.176C199.343 59.176 199.019 59.256 198.739 59.416C198.459 59.576 198.243 59.8 198.091 60.088C197.939 60.376 197.863 60.716 197.863 61.108C197.863 61.508 197.943 61.86 198.103 62.164C198.263 62.46 198.491 62.692 198.787 62.86C199.083 63.02 199.423 63.1 199.807 63.1C200.127 63.1 200.419 63.044 200.683 62.932C200.955 62.82 201.187 62.652 201.379 62.428L202.075 63.136C201.803 63.456 201.467 63.7 201.067 63.868C200.675 64.036 200.255 64.12 199.807 64.12ZM206.025 64.12C205.505 64.12 205.033 63.992 204.609 63.736C204.185 63.472 203.849 63.116 203.601 62.668C203.361 62.22 203.241 61.716 203.241 61.156C203.241 60.596 203.361 60.092 203.601 59.644C203.849 59.196 204.181 58.84 204.597 58.576C205.021 58.312 205.497 58.18 206.025 58.18C206.457 58.18 206.841 58.272 207.177 58.456C207.521 58.632 207.797 58.88 208.005 59.2C208.213 59.512 208.329 59.876 208.353 60.292V62.008C208.329 62.416 208.213 62.78 208.005 63.1C207.805 63.42 207.533 63.672 207.189 63.856C206.853 64.032 206.465 64.12 206.025 64.12ZM206.205 63.1C206.741 63.1 207.173 62.92 207.501 62.56C207.829 62.192 207.993 61.724 207.993 61.156C207.993 60.764 207.917 60.424 207.765 60.136C207.621 59.84 207.413 59.612 207.141 59.452C206.869 59.284 206.553 59.2 206.193 59.2C205.833 59.2 205.513 59.284 205.233 59.452C204.961 59.62 204.745 59.852 204.585 60.148C204.433 60.436 204.357 60.768 204.357 61.144C204.357 61.528 204.433 61.868 204.585 62.164C204.745 62.452 204.965 62.68 205.245 62.848C205.525 63.016 205.845 63.1 206.205 63.1ZM207.921 64V62.464L208.125 61.072L207.921 59.692V58.3H209.013V64H207.921ZM212.541 64L209.925 58.3H211.125L213.225 63.112H212.529L214.641 58.3H215.793L213.177 64H212.541ZM219.131 64.12C218.563 64.12 218.051 63.992 217.595 63.736C217.139 63.472 216.779 63.116 216.515 62.668C216.251 62.22 216.119 61.712 216.119 61.144C216.119 60.584 216.247 60.08 216.503 59.632C216.767 59.184 217.119 58.832 217.559 58.576C218.007 58.312 218.507 58.18 219.059 58.18C219.587 58.18 220.051 58.3 220.451 58.54C220.859 58.78 221.175 59.112 221.399 59.536C221.631 59.96 221.747 60.44 221.747 60.976C221.747 61.056 221.743 61.144 221.735 61.24C221.727 61.328 221.711 61.432 221.687 61.552H216.875V60.652H221.111L220.715 61C220.715 60.616 220.647 60.292 220.511 60.028C220.375 59.756 220.183 59.548 219.935 59.404C219.687 59.252 219.387 59.176 219.035 59.176C218.667 59.176 218.343 59.256 218.063 59.416C217.783 59.576 217.567 59.8 217.415 60.088C217.263 60.376 217.187 60.716 217.187 61.108C217.187 61.508 217.267 61.86 217.427 62.164C217.587 62.46 217.815 62.692 218.111 62.86C218.407 63.02 218.747 63.1 219.131 63.1C219.451 63.1 219.743 63.044 220.007 62.932C220.279 62.82 220.511 62.652 220.703 62.428L221.399 63.136C221.127 63.456 220.791 63.7 220.391 63.868C219.999 64.036 219.579 64.12 219.131 64.12ZM227.713 64.12C227.249 64.12 226.829 64.016 226.453 63.808C226.085 63.592 225.797 63.296 225.589 62.92C225.381 62.544 225.277 62.108 225.277 61.612V58.3H226.357V61.564C226.357 61.876 226.409 62.148 226.513 62.38C226.625 62.604 226.785 62.776 226.993 62.896C227.201 63.016 227.445 63.076 227.725 63.076C228.149 63.076 228.481 62.944 228.721 62.68C228.961 62.408 229.081 62.036 229.081 61.564V58.3H230.161V61.612C230.161 62.108 230.057 62.544 229.849 62.92C229.641 63.296 229.353 63.592 228.985 63.808C228.625 64.016 228.201 64.12 227.713 64.12ZM233.42 64.12C233.1 64.12 232.796 64.08 232.508 64C232.228 63.912 231.968 63.792 231.728 63.64C231.488 63.48 231.28 63.292 231.104 63.076L231.8 62.38C232.008 62.636 232.248 62.828 232.52 62.956C232.792 63.076 233.096 63.136 233.432 63.136C233.768 63.136 234.028 63.08 234.212 62.968C234.396 62.848 234.488 62.684 234.488 62.476C234.488 62.268 234.412 62.108 234.26 61.996C234.116 61.876 233.928 61.78 233.696 61.708C233.464 61.628 233.216 61.552 232.952 61.48C232.696 61.4 232.452 61.3 232.22 61.18C231.988 61.06 231.796 60.896 231.644 60.688C231.5 60.48 231.428 60.204 231.428 59.86C231.428 59.516 231.512 59.22 231.68 58.972C231.848 58.716 232.08 58.52 232.376 58.384C232.68 58.248 233.044 58.18 233.468 58.18C233.916 58.18 234.312 58.26 234.656 58.42C235.008 58.572 235.296 58.804 235.52 59.116L234.824 59.812C234.664 59.604 234.464 59.444 234.224 59.332C233.992 59.22 233.728 59.164 233.432 59.164C233.12 59.164 232.88 59.22 232.712 59.332C232.552 59.436 232.472 59.584 232.472 59.776C232.472 59.968 232.544 60.116 232.688 60.22C232.832 60.324 233.02 60.412 233.252 60.484C233.492 60.556 233.74 60.632 233.996 60.712C234.252 60.784 234.496 60.884 234.728 61.012C234.96 61.14 235.148 61.312 235.292 61.528C235.444 61.744 235.52 62.028 235.52 62.38C235.52 62.916 235.328 63.34 234.944 63.652C234.568 63.964 234.06 64.12 233.42 64.12ZM241.098 64.048L238.626 58.3H239.826L241.662 62.8H241.278L243.21 58.3H244.41L241.746 64.048H241.098ZM239.466 66.388L241.146 62.944L241.746 64.048L240.666 66.388H239.466ZM247.677 64.12C247.117 64.12 246.613 63.988 246.165 63.724C245.717 63.46 245.361 63.104 245.097 62.656C244.833 62.2 244.701 61.692 244.701 61.132C244.701 60.58 244.833 60.084 245.097 59.644C245.361 59.196 245.717 58.84 246.165 58.576C246.613 58.312 247.117 58.18 247.677 58.18C248.229 58.18 248.729 58.312 249.177 58.576C249.633 58.832 249.993 59.184 250.257 59.632C250.521 60.08 250.653 60.58 250.653 61.132C250.653 61.692 250.521 62.2 250.257 62.656C249.993 63.104 249.633 63.46 249.177 63.724C248.729 63.988 248.229 64.12 247.677 64.12ZM247.677 63.076C248.037 63.076 248.357 62.992 248.637 62.824C248.917 62.656 249.137 62.428 249.297 62.14C249.457 61.844 249.537 61.508 249.537 61.132C249.537 60.764 249.453 60.436 249.285 60.148C249.125 59.86 248.905 59.636 248.625 59.476C248.353 59.308 248.037 59.224 247.677 59.224C247.317 59.224 246.997 59.308 246.717 59.476C246.437 59.636 246.217 59.86 246.057 60.148C245.897 60.436 245.817 60.764 245.817 61.132C245.817 61.508 245.897 61.844 246.057 62.14C246.217 62.428 246.437 62.656 246.717 62.824C246.997 62.992 247.317 63.076 247.677 63.076ZM254.162 64.12C253.698 64.12 253.278 64.016 252.902 63.808C252.534 63.592 252.246 63.296 252.038 62.92C251.83 62.544 251.726 62.108 251.726 61.612V58.3H252.806V61.564C252.806 61.876 252.858 62.148 252.962 62.38C253.074 62.604 253.234 62.776 253.442 62.896C253.65 63.016 253.894 63.076 254.174 63.076C254.598 63.076 254.93 62.944 255.17 62.68C255.41 62.408 255.53 62.036 255.53 61.564V58.3H256.61V61.612C256.61 62.108 256.506 62.544 256.298 62.92C256.09 63.296 255.802 63.592 255.434 63.808C255.074 64.016 254.65 64.12 254.162 64.12ZM258.058 64V58.3H259.138V64H258.058ZM259.138 60.748L258.73 60.568C258.73 59.84 258.898 59.26 259.234 58.828C259.57 58.396 260.054 58.18 260.686 58.18C260.974 58.18 261.234 58.232 261.466 58.336C261.698 58.432 261.914 58.596 262.114 58.828L261.406 59.56C261.286 59.432 261.154 59.34 261.01 59.284C260.866 59.228 260.698 59.2 260.506 59.2C260.106 59.2 259.778 59.328 259.522 59.584C259.266 59.84 259.138 60.228 259.138 60.748ZM267.993 64.12C267.465 64.12 266.993 63.992 266.577 63.736C266.161 63.472 265.829 63.116 265.581 62.668C265.341 62.22 265.221 61.716 265.221 61.156C265.221 60.596 265.341 60.092 265.581 59.644C265.829 59.196 266.161 58.84 266.577 58.576C266.993 58.312 267.465 58.18 267.993 58.18C268.417 58.18 268.801 58.272 269.145 58.456C269.489 58.632 269.765 58.88 269.973 59.2C270.189 59.512 270.309 59.876 270.333 60.292V62.008C270.309 62.416 270.193 62.78 269.985 63.1C269.777 63.42 269.501 63.672 269.157 63.856C268.813 64.032 268.425 64.12 267.993 64.12ZM268.173 63.1C268.533 63.1 268.845 63.016 269.109 62.848C269.381 62.68 269.593 62.452 269.745 62.164C269.897 61.868 269.973 61.532 269.973 61.156C269.973 60.764 269.893 60.424 269.733 60.136C269.581 59.848 269.369 59.62 269.097 59.452C268.833 59.284 268.521 59.2 268.161 59.2C267.801 59.2 267.485 59.284 267.213 59.452C266.941 59.62 266.725 59.852 266.565 60.148C266.413 60.436 266.337 60.768 266.337 61.144C266.337 61.528 266.413 61.868 266.565 62.164C266.725 62.452 266.941 62.68 267.213 62.848C267.493 63.016 267.813 63.1 268.173 63.1ZM270.993 64H269.901V62.464L270.105 61.072L269.901 59.692V55.432H270.993V64ZM275.205 64.12C274.637 64.12 274.125 63.992 273.669 63.736C273.213 63.472 272.853 63.116 272.589 62.668C272.325 62.22 272.193 61.712 272.193 61.144C272.193 60.584 272.321 60.08 272.577 59.632C272.841 59.184 273.193 58.832 273.633 58.576C274.081 58.312 274.581 58.18 275.133 58.18C275.661 58.18 276.125 58.3 276.525 58.54C276.933 58.78 277.249 59.112 277.473 59.536C277.705 59.96 277.821 60.44 277.821 60.976C277.821 61.056 277.817 61.144 277.809 61.24C277.801 61.328 277.785 61.432 277.761 61.552H272.949V60.652H277.185L276.789 61C276.789 60.616 276.721 60.292 276.585 60.028C276.449 59.756 276.257 59.548 276.009 59.404C275.761 59.252 275.461 59.176 275.109 59.176C274.741 59.176 274.417 59.256 274.137 59.416C273.857 59.576 273.641 59.8 273.489 60.088C273.337 60.376 273.261 60.716 273.261 61.108C273.261 61.508 273.341 61.86 273.501 62.164C273.661 62.46 273.889 62.692 274.185 62.86C274.481 63.02 274.821 63.1 275.205 63.1C275.525 63.1 275.817 63.044 276.081 62.932C276.353 62.82 276.585 62.652 276.777 62.428L277.473 63.136C277.201 63.456 276.865 63.7 276.465 63.868C276.073 64.036 275.653 64.12 275.205 64.12ZM279.699 64V55.912H280.779V64H279.699ZM278.295 59.284V58.3H282.183V59.284H278.295ZM285.489 64.12C284.969 64.12 284.497 63.992 284.073 63.736C283.649 63.472 283.313 63.116 283.065 62.668C282.825 62.22 282.705 61.716 282.705 61.156C282.705 60.596 282.825 60.092 283.065 59.644C283.313 59.196 283.645 58.84 284.061 58.576C284.485 58.312 284.961 58.18 285.489 58.18C285.921 58.18 286.305 58.272 286.641 58.456C286.985 58.632 287.261 58.88 287.469 59.2C287.677 59.512 287.793 59.876 287.817 60.292V62.008C287.793 62.416 287.677 62.78 287.469 63.1C287.269 63.42 286.997 63.672 286.653 63.856C286.317 64.032 285.929 64.12 285.489 64.12ZM285.669 63.1C286.205 63.1 286.637 62.92 286.965 62.56C287.293 62.192 287.457 61.724 287.457 61.156C287.457 60.764 287.381 60.424 287.229 60.136C287.085 59.84 286.877 59.612 286.605 59.452C286.333 59.284 286.017 59.2 285.657 59.2C285.297 59.2 284.977 59.284 284.697 59.452C284.425 59.62 284.209 59.852 284.049 60.148C283.897 60.436 283.821 60.768 283.821 61.144C283.821 61.528 283.897 61.868 284.049 62.164C284.209 62.452 284.429 62.68 284.709 62.848C284.989 63.016 285.309 63.1 285.669 63.1ZM287.385 64V62.464L287.589 61.072L287.385 59.692V58.3H288.477V64H287.385ZM290.062 64V58.3H291.142V64H290.062ZM290.602 57.16C290.402 57.16 290.238 57.096 290.11 56.968C289.982 56.832 289.918 56.664 289.918 56.464C289.918 56.272 289.982 56.112 290.11 55.984C290.238 55.848 290.402 55.78 290.602 55.78C290.802 55.78 290.966 55.848 291.094 55.984C291.222 56.112 291.286 56.272 291.286 56.464C291.286 56.664 291.222 56.832 291.094 56.968C290.966 57.096 290.802 57.16 290.602 57.16ZM292.733 64V55.432H293.813V64H292.733ZM297.206 64.12C296.886 64.12 296.582 64.08 296.294 64C296.014 63.912 295.754 63.792 295.514 63.64C295.274 63.48 295.066 63.292 294.89 63.076L295.586 62.38C295.794 62.636 296.034 62.828 296.306 62.956C296.578 63.076 296.882 63.136 297.218 63.136C297.554 63.136 297.814 63.08 297.998 62.968C298.182 62.848 298.274 62.684 298.274 62.476C298.274 62.268 298.198 62.108 298.046 61.996C297.902 61.876 297.714 61.78 297.482 61.708C297.25 61.628 297.002 61.552 296.738 61.48C296.482 61.4 296.238 61.3 296.006 61.18C295.774 61.06 295.582 60.896 295.43 60.688C295.286 60.48 295.214 60.204 295.214 59.86C295.214 59.516 295.298 59.22 295.466 58.972C295.634 58.716 295.866 58.52 296.162 58.384C296.466 58.248 296.83 58.18 297.254 58.18C297.702 58.18 298.098 58.26 298.442 58.42C298.794 58.572 299.082 58.804 299.306 59.116L298.61 59.812C298.45 59.604 298.25 59.444 298.01 59.332C297.778 59.22 297.514 59.164 297.218 59.164C296.906 59.164 296.666 59.22 296.498 59.332C296.338 59.436 296.258 59.584 296.258 59.776C296.258 59.968 296.33 60.116 296.474 60.22C296.618 60.324 296.806 60.412 297.038 60.484C297.278 60.556 297.526 60.632 297.782 60.712C298.038 60.784 298.282 60.884 298.514 61.012C298.746 61.14 298.934 61.312 299.078 61.528C299.23 61.744 299.306 62.028 299.306 62.38C299.306 62.916 299.114 63.34 298.73 63.652C298.354 63.964 297.846 64.12 297.206 64.12ZM308.663 64L304.679 59.728C304.367 59.392 304.135 59.072 303.983 58.768C303.831 58.464 303.755 58.128 303.755 57.76C303.755 57.336 303.855 56.96 304.055 56.632C304.255 56.296 304.531 56.032 304.883 55.84C305.235 55.64 305.639 55.54 306.095 55.54C306.431 55.54 306.735 55.596 307.007 55.708C307.287 55.812 307.531 55.952 307.739 56.128C307.955 56.304 308.135 56.504 308.279 56.728L307.499 57.436C307.315 57.18 307.111 56.976 306.887 56.824C306.671 56.664 306.407 56.584 306.095 56.584C305.735 56.584 305.435 56.692 305.195 56.908C304.955 57.124 304.835 57.404 304.835 57.748C304.835 58.036 304.895 58.28 305.015 58.48C305.135 58.68 305.315 58.912 305.555 59.176L309.983 64H308.663ZM305.675 64.12C305.123 64.12 304.639 64.012 304.223 63.796C303.807 63.58 303.483 63.284 303.251 62.908C303.027 62.524 302.915 62.088 302.915 61.6C302.915 61.096 303.051 60.64 303.323 60.232C303.595 59.824 303.991 59.5 304.511 59.26L305.027 59.932C304.707 60.092 304.455 60.312 304.271 60.592C304.087 60.864 303.995 61.192 303.995 61.576C303.995 61.888 304.067 62.156 304.211 62.38C304.355 62.604 304.555 62.78 304.811 62.908C305.075 63.028 305.375 63.088 305.711 63.088C306.135 63.088 306.495 63 306.791 62.824C307.087 62.648 307.311 62.424 307.463 62.152L308.171 62.98C308.011 63.196 307.799 63.392 307.535 63.568C307.279 63.736 306.991 63.872 306.671 63.976C306.359 64.072 306.027 64.12 305.675 64.12ZM314.592 64L312.336 58.3H313.464L315.096 62.74H314.736L316.356 58.3H316.98L318.6 62.74H318.24L319.872 58.3H321L318.756 64H318.12L316.476 59.692H316.872L315.216 64H314.592ZM324.436 64.12C323.868 64.12 323.356 63.992 322.9 63.736C322.444 63.472 322.084 63.116 321.82 62.668C321.556 62.22 321.424 61.712 321.424 61.144C321.424 60.584 321.552 60.08 321.808 59.632C322.072 59.184 322.424 58.832 322.864 58.576C323.312 58.312 323.812 58.18 324.364 58.18C324.892 58.18 325.356 58.3 325.756 58.54C326.164 58.78 326.48 59.112 326.704 59.536C326.936 59.96 327.052 60.44 327.052 60.976C327.052 61.056 327.048 61.144 327.04 61.24C327.032 61.328 327.016 61.432 326.992 61.552H322.18V60.652H326.416L326.02 61C326.02 60.616 325.952 60.292 325.816 60.028C325.68 59.756 325.488 59.548 325.24 59.404C324.992 59.252 324.692 59.176 324.34 59.176C323.972 59.176 323.648 59.256 323.368 59.416C323.088 59.576 322.872 59.8 322.72 60.088C322.568 60.376 322.492 60.716 322.492 61.108C322.492 61.508 322.572 61.86 322.732 62.164C322.892 62.46 323.12 62.692 323.416 62.86C323.712 63.02 324.052 63.1 324.436 63.1C324.756 63.1 325.048 63.044 325.312 62.932C325.584 62.82 325.816 62.652 326.008 62.428L326.704 63.136C326.432 63.456 326.096 63.7 325.696 63.868C325.304 64.036 324.884 64.12 324.436 64.12ZM192.424 79L190.168 73.3H191.296L192.928 77.74H192.568L194.188 73.3H194.812L196.432 77.74H196.072L197.704 73.3H198.832L196.588 79H195.952L194.308 74.692H194.704L193.048 79H192.424ZM199.71 79V73.3H200.79V79H199.71ZM200.25 72.16C200.05 72.16 199.886 72.096 199.758 71.968C199.63 71.832 199.566 71.664 199.566 71.464C199.566 71.272 199.63 71.112 199.758 70.984C199.886 70.848 200.05 70.78 200.25 70.78C200.45 70.78 200.614 70.848 200.742 70.984C200.87 71.112 200.934 71.272 200.934 71.464C200.934 71.664 200.87 71.832 200.742 71.968C200.614 72.096 200.45 72.16 200.25 72.16ZM202.382 79V70.432H203.462V79H202.382ZM205.042 79V70.432H206.122V79H205.042ZM212.562 81.508C211.978 81.508 211.458 81.4 211.002 81.184C210.554 80.968 210.194 80.664 209.922 80.272L210.618 79.564C210.85 79.86 211.126 80.084 211.446 80.236C211.766 80.396 212.146 80.476 212.586 80.476C213.17 80.476 213.63 80.32 213.966 80.008C214.31 79.704 214.482 79.292 214.482 78.772V77.356L214.674 76.072L214.482 74.8V73.3H215.562V78.772C215.562 79.316 215.434 79.792 215.178 80.2C214.93 80.608 214.578 80.928 214.122 81.16C213.674 81.392 213.154 81.508 212.562 81.508ZM212.562 78.904C212.042 78.904 211.574 78.78 211.158 78.532C210.75 78.284 210.426 77.944 210.186 77.512C209.946 77.072 209.826 76.58 209.826 76.036C209.826 75.492 209.946 75.008 210.186 74.584C210.426 74.152 210.75 73.812 211.158 73.564C211.574 73.308 212.042 73.18 212.562 73.18C213.01 73.18 213.406 73.268 213.75 73.444C214.094 73.62 214.366 73.868 214.566 74.188C214.774 74.5 214.886 74.868 214.902 75.292V76.804C214.878 77.22 214.762 77.588 214.554 77.908C214.354 78.22 214.082 78.464 213.738 78.64C213.394 78.816 213.002 78.904 212.562 78.904ZM212.778 77.884C213.13 77.884 213.438 77.808 213.702 77.656C213.974 77.504 214.182 77.292 214.326 77.02C214.47 76.74 214.542 76.416 214.542 76.048C214.542 75.68 214.466 75.36 214.314 75.088C214.17 74.808 213.966 74.592 213.702 74.44C213.438 74.28 213.126 74.2 212.766 74.2C212.406 74.2 212.09 74.28 211.818 74.44C211.546 74.592 211.33 74.808 211.17 75.088C211.018 75.36 210.942 75.676 210.942 76.036C210.942 76.396 211.018 76.716 211.17 76.996C211.33 77.276 211.546 77.496 211.818 77.656C212.098 77.808 212.418 77.884 212.778 77.884ZM219.787 79.12C219.219 79.12 218.707 78.992 218.251 78.736C217.795 78.472 217.435 78.116 217.171 77.668C216.907 77.22 216.775 76.712 216.775 76.144C216.775 75.584 216.903 75.08 217.159 74.632C217.423 74.184 217.775 73.832 218.215 73.576C218.663 73.312 219.163 73.18 219.715 73.18C220.243 73.18 220.707 73.3 221.107 73.54C221.515 73.78 221.831 74.112 222.055 74.536C222.287 74.96 222.403 75.44 222.403 75.976C222.403 76.056 222.399 76.144 222.391 76.24C222.383 76.328 222.367 76.432 222.343 76.552H217.531V75.652H221.767L221.371 76C221.371 75.616 221.303 75.292 221.167 75.028C221.031 74.756 220.839 74.548 220.591 74.404C220.343 74.252 220.043 74.176 219.691 74.176C219.323 74.176 218.999 74.256 218.719 74.416C218.439 74.576 218.223 74.8 218.071 75.088C217.919 75.376 217.843 75.716 217.843 76.108C217.843 76.508 217.923 76.86 218.083 77.164C218.243 77.46 218.471 77.692 218.767 77.86C219.063 78.02 219.403 78.1 219.787 78.1C220.107 78.1 220.399 78.044 220.663 77.932C220.935 77.82 221.167 77.652 221.359 77.428L222.055 78.136C221.783 78.456 221.447 78.7 221.047 78.868C220.655 79.036 220.235 79.12 219.787 79.12ZM224.281 79V70.912H225.361V79H224.281ZM222.877 74.284V73.3H226.765V74.284H222.877ZM233.319 79.12C232.887 79.12 232.495 79.032 232.143 78.856C231.799 78.672 231.523 78.42 231.315 78.1C231.107 77.78 230.991 77.416 230.967 77.008V75.292C230.991 74.876 231.107 74.512 231.315 74.2C231.531 73.88 231.811 73.632 232.155 73.456C232.507 73.272 232.895 73.18 233.319 73.18C233.839 73.18 234.307 73.312 234.723 73.576C235.147 73.84 235.479 74.196 235.719 74.644C235.959 75.092 236.079 75.596 236.079 76.156C236.079 76.716 235.959 77.22 235.719 77.668C235.479 78.116 235.147 78.472 234.723 78.736C234.307 78.992 233.839 79.12 233.319 79.12ZM233.139 78.1C233.499 78.1 233.815 78.016 234.087 77.848C234.359 77.68 234.575 77.452 234.735 77.164C234.895 76.868 234.975 76.528 234.975 76.144C234.975 75.768 234.895 75.432 234.735 75.136C234.575 74.84 234.359 74.612 234.087 74.452C233.815 74.284 233.503 74.2 233.151 74.2C232.791 74.2 232.475 74.284 232.203 74.452C231.931 74.612 231.719 74.84 231.567 75.136C231.415 75.432 231.339 75.772 231.339 76.156C231.339 76.532 231.411 76.868 231.555 77.164C231.707 77.452 231.919 77.68 232.191 77.848C232.471 78.016 232.787 78.1 233.139 78.1ZM230.319 79V70.432H231.399V74.692L231.195 76.072L231.399 77.464V79H230.319ZM239.728 79.12C239.208 79.12 238.736 78.992 238.312 78.736C237.888 78.472 237.552 78.116 237.304 77.668C237.064 77.22 236.944 76.716 236.944 76.156C236.944 75.596 237.064 75.092 237.304 74.644C237.552 74.196 237.884 73.84 238.3 73.576C238.724 73.312 239.2 73.18 239.728 73.18C240.16 73.18 240.544 73.272 240.88 73.456C241.224 73.632 241.5 73.88 241.708 74.2C241.916 74.512 242.032 74.876 242.056 75.292V77.008C242.032 77.416 241.916 77.78 241.708 78.1C241.508 78.42 241.236 78.672 240.892 78.856C240.556 79.032 240.168 79.12 239.728 79.12ZM239.908 78.1C240.444 78.1 240.876 77.92 241.204 77.56C241.532 77.192 241.696 76.724 241.696 76.156C241.696 75.764 241.62 75.424 241.468 75.136C241.324 74.84 241.116 74.612 240.844 74.452C240.572 74.284 240.256 74.2 239.896 74.2C239.536 74.2 239.216 74.284 238.936 74.452C238.664 74.62 238.448 74.852 238.288 75.148C238.136 75.436 238.06 75.768 238.06 76.144C238.06 76.528 238.136 76.868 238.288 77.164C238.448 77.452 238.668 77.68 238.948 77.848C239.228 78.016 239.548 78.1 239.908 78.1ZM241.624 79V77.464L241.828 76.072L241.624 74.692V73.3H242.716V79H241.624ZM246.892 79.12C246.332 79.12 245.824 78.988 245.368 78.724C244.92 78.46 244.564 78.104 244.3 77.656C244.044 77.2 243.916 76.696 243.916 76.144C243.916 75.584 244.044 75.08 244.3 74.632C244.564 74.184 244.92 73.832 245.368 73.576C245.824 73.312 246.332 73.18 246.892 73.18C247.332 73.18 247.74 73.264 248.116 73.432C248.492 73.592 248.816 73.828 249.088 74.14L248.368 74.86C248.192 74.652 247.976 74.496 247.72 74.392C247.472 74.28 247.196 74.224 246.892 74.224C246.532 74.224 246.212 74.308 245.932 74.476C245.652 74.636 245.432 74.86 245.272 75.148C245.112 75.436 245.032 75.768 245.032 76.144C245.032 76.52 245.112 76.852 245.272 77.14C245.432 77.428 245.652 77.656 245.932 77.824C246.212 77.992 246.532 78.076 246.892 78.076C247.196 78.076 247.472 78.024 247.72 77.92C247.976 77.808 248.196 77.648 248.38 77.44L249.088 78.16C248.824 78.464 248.5 78.7 248.116 78.868C247.74 79.036 247.332 79.12 246.892 79.12ZM253.807 79L251.143 76.084L253.783 73.3H255.091L252.151 76.372L252.199 75.748L255.199 79H253.807ZM250.159 79V70.432H251.239V79H250.159ZM259.508 79V70.912H260.588V79H259.508ZM258.104 74.284V73.3H261.992V74.284H258.104ZM265.478 79.12C264.918 79.12 264.414 78.988 263.966 78.724C263.518 78.46 263.162 78.104 262.898 77.656C262.634 77.2 262.502 76.692 262.502 76.132C262.502 75.58 262.634 75.084 262.898 74.644C263.162 74.196 263.518 73.84 263.966 73.576C264.414 73.312 264.918 73.18 265.478 73.18C266.03 73.18 266.53 73.312 266.978 73.576C267.434 73.832 267.794 74.184 268.058 74.632C268.322 75.08 268.454 75.58 268.454 76.132C268.454 76.692 268.322 77.2 268.058 77.656C267.794 78.104 267.434 78.46 266.978 78.724C266.53 78.988 266.03 79.12 265.478 79.12ZM265.478 78.076C265.838 78.076 266.158 77.992 266.438 77.824C266.718 77.656 266.938 77.428 267.098 77.14C267.258 76.844 267.338 76.508 267.338 76.132C267.338 75.764 267.254 75.436 267.086 75.148C266.926 74.86 266.706 74.636 266.426 74.476C266.154 74.308 265.838 74.224 265.478 74.224C265.118 74.224 264.798 74.308 264.518 74.476C264.238 74.636 264.018 74.86 263.858 75.148C263.698 75.436 263.618 75.764 263.618 76.132C263.618 76.508 263.698 76.844 263.858 77.14C264.018 77.428 264.238 77.656 264.518 77.824C264.798 77.992 265.118 78.076 265.478 78.076ZM274.039 79.048L271.567 73.3H272.767L274.603 77.8H274.219L276.151 73.3H277.351L274.687 79.048H274.039ZM272.407 81.388L274.087 77.944L274.687 79.048L273.607 81.388H272.407ZM280.619 79.12C280.059 79.12 279.555 78.988 279.107 78.724C278.659 78.46 278.303 78.104 278.039 77.656C277.775 77.2 277.643 76.692 277.643 76.132C277.643 75.58 277.775 75.084 278.039 74.644C278.303 74.196 278.659 73.84 279.107 73.576C279.555 73.312 280.059 73.18 280.619 73.18C281.171 73.18 281.671 73.312 282.119 73.576C282.575 73.832 282.935 74.184 283.199 74.632C283.463 75.08 283.595 75.58 283.595 76.132C283.595 76.692 283.463 77.2 283.199 77.656C282.935 78.104 282.575 78.46 282.119 78.724C281.671 78.988 281.171 79.12 280.619 79.12ZM280.619 78.076C280.979 78.076 281.299 77.992 281.579 77.824C281.859 77.656 282.079 77.428 282.239 77.14C282.399 76.844 282.479 76.508 282.479 76.132C282.479 75.764 282.395 75.436 282.227 75.148C282.067 74.86 281.847 74.636 281.567 74.476C281.295 74.308 280.979 74.224 280.619 74.224C280.259 74.224 279.939 74.308 279.659 74.476C279.379 74.636 279.159 74.86 278.999 75.148C278.839 75.436 278.759 75.764 278.759 76.132C278.759 76.508 278.839 76.844 278.999 77.14C279.159 77.428 279.379 77.656 279.659 77.824C279.939 77.992 280.259 78.076 280.619 78.076ZM287.104 79.12C286.64 79.12 286.22 79.016 285.844 78.808C285.476 78.592 285.188 78.296 284.98 77.92C284.772 77.544 284.668 77.108 284.668 76.612V73.3H285.748V76.564C285.748 76.876 285.8 77.148 285.904 77.38C286.016 77.604 286.176 77.776 286.384 77.896C286.592 78.016 286.836 78.076 287.116 78.076C287.54 78.076 287.872 77.944 288.112 77.68C288.352 77.408 288.472 77.036 288.472 76.564V73.3H289.552V76.612C289.552 77.108 289.448 77.544 289.24 77.92C289.032 78.296 288.744 78.592 288.376 78.808C288.016 79.016 287.592 79.12 287.104 79.12ZM295.307 79.12C294.987 79.12 294.683 79.08 294.395 79C294.115 78.912 293.855 78.792 293.615 78.64C293.375 78.48 293.167 78.292 292.991 78.076L293.687 77.38C293.895 77.636 294.135 77.828 294.407 77.956C294.679 78.076 294.983 78.136 295.319 78.136C295.655 78.136 295.915 78.08 296.099 77.968C296.283 77.848 296.375 77.684 296.375 77.476C296.375 77.268 296.299 77.108 296.147 76.996C296.003 76.876 295.815 76.78 295.583 76.708C295.351 76.628 295.103 76.552 294.839 76.48C294.583 76.4 294.339 76.3 294.107 76.18C293.875 76.06 293.683 75.896 293.531 75.688C293.387 75.48 293.315 75.204 293.315 74.86C293.315 74.516 293.399 74.22 293.567 73.972C293.735 73.716 293.967 73.52 294.263 73.384C294.567 73.248 294.931 73.18 295.355 73.18C295.803 73.18 296.199 73.26 296.543 73.42C296.895 73.572 297.183 73.804 297.407 74.116L296.711 74.812C296.551 74.604 296.351 74.444 296.111 74.332C295.879 74.22 295.615 74.164 295.319 74.164C295.007 74.164 294.767 74.22 294.599 74.332C294.439 74.436 294.359 74.584 294.359 74.776C294.359 74.968 294.431 75.116 294.575 75.22C294.719 75.324 294.907 75.412 295.139 75.484C295.379 75.556 295.627 75.632 295.883 75.712C296.139 75.784 296.383 75.884 296.615 76.012C296.847 76.14 297.035 76.312 297.179 76.528C297.331 76.744 297.407 77.028 297.407 77.38C297.407 77.916 297.215 78.34 296.831 78.652C296.455 78.964 295.947 79.12 295.307 79.12ZM302.648 79V75.676C302.648 75.244 302.512 74.888 302.24 74.608C301.968 74.328 301.616 74.188 301.184 74.188C300.896 74.188 300.64 74.252 300.416 74.38C300.192 74.508 300.016 74.684 299.888 74.908C299.76 75.132 299.696 75.388 299.696 75.676L299.252 75.424C299.252 74.992 299.348 74.608 299.54 74.272C299.732 73.936 300 73.672 300.344 73.48C300.688 73.28 301.076 73.18 301.508 73.18C301.94 73.18 302.32 73.276 302.648 73.468C302.984 73.66 303.248 73.928 303.44 74.272C303.632 74.616 303.728 75.012 303.728 75.46V79H302.648ZM298.616 79V70.432H299.696V79H298.616ZM307.794 79.12C307.234 79.12 306.73 78.988 306.282 78.724C305.834 78.46 305.478 78.104 305.214 77.656C304.95 77.2 304.818 76.692 304.818 76.132C304.818 75.58 304.95 75.084 305.214 74.644C305.478 74.196 305.834 73.84 306.282 73.576C306.73 73.312 307.234 73.18 307.794 73.18C308.346 73.18 308.846 73.312 309.294 73.576C309.75 73.832 310.11 74.184 310.374 74.632C310.638 75.08 310.77 75.58 310.77 76.132C310.77 76.692 310.638 77.2 310.374 77.656C310.11 78.104 309.75 78.46 309.294 78.724C308.846 78.988 308.346 79.12 307.794 79.12ZM307.794 78.076C308.154 78.076 308.474 77.992 308.754 77.824C309.034 77.656 309.254 77.428 309.414 77.14C309.574 76.844 309.654 76.508 309.654 76.132C309.654 75.764 309.57 75.436 309.402 75.148C309.242 74.86 309.022 74.636 308.742 74.476C308.47 74.308 308.154 74.224 307.794 74.224C307.434 74.224 307.114 74.308 306.834 74.476C306.554 74.636 306.334 74.86 306.174 75.148C306.014 75.436 305.934 75.764 305.934 76.132C305.934 76.508 306.014 76.844 306.174 77.14C306.334 77.428 306.554 77.656 306.834 77.824C307.114 77.992 307.434 78.076 307.794 78.076ZM311.987 79V73.3H313.067V79H311.987ZM313.067 75.748L312.659 75.568C312.659 74.84 312.827 74.26 313.163 73.828C313.499 73.396 313.983 73.18 314.615 73.18C314.903 73.18 315.163 73.232 315.395 73.336C315.627 73.432 315.843 73.596 316.043 73.828L315.335 74.56C315.215 74.432 315.083 74.34 314.939 74.284C314.795 74.228 314.627 74.2 314.435 74.2C314.035 74.2 313.707 74.328 313.451 74.584C313.195 74.84 313.067 75.228 313.067 75.748ZM317.656 79V70.912H318.736V79H317.656ZM316.252 74.284V73.3H320.14V74.284H316.252ZM321.198 79V70.432H322.278V79H321.198ZM325.73 79.048L323.258 73.3H324.458L326.294 77.8H325.91L327.842 73.3H329.042L326.378 79.048H325.73ZM324.098 81.388L325.778 77.944L326.378 79.048L325.298 81.388H324.098ZM330.346 76.36L330.19 70.432H331.342L331.186 76.36H330.346ZM330.754 79.12C330.53 79.12 330.346 79.044 330.202 78.892C330.058 78.74 329.986 78.552 329.986 78.328C329.986 78.104 330.058 77.92 330.202 77.776C330.346 77.624 330.53 77.548 330.754 77.548C330.986 77.548 331.174 77.624 331.318 77.776C331.462 77.92 331.534 78.104 331.534 78.328C331.534 78.552 331.462 78.74 331.318 78.892C331.174 79.044 330.986 79.12 330.754 79.12Z" fill="#1D212B"/>
<g filter="url(#filter0_d_473_371)">
<rect x="154" y="98" width="280" height="35" rx="8" fill="white"/>
<rect x="154.5" y="98.5" width="279" height="34" rx="7.5" stroke="#DDDEDF"/>
<path d="M170.984 120V111.672H171.776L172.112 112.98V120H170.984ZM176.744 120L171.632 113.172L171.776 111.672L176.9 118.488L176.744 120ZM176.744 120L176.408 118.764V111.672H177.536V120H176.744ZM181.736 120.12C181.216 120.12 180.744 119.992 180.32 119.736C179.896 119.472 179.56 119.116 179.312 118.668C179.072 118.22 178.952 117.716 178.952 117.156C178.952 116.596 179.072 116.092 179.312 115.644C179.56 115.196 179.892 114.84 180.308 114.576C180.732 114.312 181.208 114.18 181.736 114.18C182.168 114.18 182.552 114.272 182.888 114.456C183.232 114.632 183.508 114.88 183.716 115.2C183.924 115.512 184.04 115.876 184.064 116.292V118.008C184.04 118.416 183.924 118.78 183.716 119.1C183.516 119.42 183.244 119.672 182.9 119.856C182.564 120.032 182.176 120.12 181.736 120.12ZM181.916 119.1C182.452 119.1 182.884 118.92 183.212 118.56C183.54 118.192 183.704 117.724 183.704 117.156C183.704 116.764 183.628 116.424 183.476 116.136C183.332 115.84 183.124 115.612 182.852 115.452C182.58 115.284 182.264 115.2 181.904 115.2C181.544 115.2 181.224 115.284 180.944 115.452C180.672 115.62 180.456 115.852 180.296 116.148C180.144 116.436 180.068 116.768 180.068 117.144C180.068 117.528 180.144 117.868 180.296 118.164C180.456 118.452 180.676 118.68 180.956 118.848C181.236 119.016 181.556 119.1 181.916 119.1ZM183.632 120V118.464L183.836 117.072L183.632 115.692V114.3H184.724V120H183.632ZM186.296 120V114.3H187.376V120H186.296ZM190.148 120V116.556C190.148 116.132 190.016 115.8 189.752 115.56C189.496 115.312 189.172 115.188 188.78 115.188C188.516 115.188 188.28 115.244 188.072 115.356C187.864 115.468 187.696 115.624 187.568 115.824C187.44 116.024 187.376 116.264 187.376 116.544L186.932 116.328C186.932 115.896 187.024 115.52 187.208 115.2C187.4 114.88 187.66 114.632 187.988 114.456C188.316 114.272 188.684 114.18 189.092 114.18C189.492 114.18 189.852 114.268 190.172 114.444C190.5 114.62 190.756 114.868 190.94 115.188C191.132 115.508 191.228 115.888 191.228 116.328V120H190.148ZM194 120V116.556C194 116.132 193.868 115.8 193.604 115.56C193.348 115.312 193.028 115.188 192.644 115.188C192.38 115.188 192.14 115.244 191.924 115.356C191.716 115.468 191.548 115.624 191.42 115.824C191.292 116.024 191.228 116.264 191.228 116.544L190.616 116.328C190.64 115.888 190.756 115.512 190.964 115.2C191.18 114.88 191.456 114.632 191.792 114.456C192.128 114.272 192.496 114.18 192.896 114.18C193.312 114.18 193.684 114.268 194.012 114.444C194.34 114.62 194.6 114.868 194.792 115.188C194.992 115.508 195.092 115.892 195.092 116.34V120H194ZM199.202 120.12C198.634 120.12 198.122 119.992 197.666 119.736C197.21 119.472 196.85 119.116 196.586 118.668C196.322 118.22 196.19 117.712 196.19 117.144C196.19 116.584 196.318 116.08 196.574 115.632C196.838 115.184 197.19 114.832 197.63 114.576C198.078 114.312 198.578 114.18 199.13 114.18C199.658 114.18 200.122 114.3 200.522 114.54C200.93 114.78 201.246 115.112 201.47 115.536C201.702 115.96 201.818 116.44 201.818 116.976C201.818 117.056 201.814 117.144 201.806 117.24C201.798 117.328 201.782 117.432 201.758 117.552H196.946V116.652H201.182L200.786 117C200.786 116.616 200.718 116.292 200.582 116.028C200.446 115.756 200.254 115.548 200.006 115.404C199.758 115.252 199.458 115.176 199.106 115.176C198.738 115.176 198.414 115.256 198.134 115.416C197.854 115.576 197.638 115.8 197.486 116.088C197.334 116.376 197.258 116.716 197.258 117.108C197.258 117.508 197.338 117.86 197.498 118.164C197.658 118.46 197.886 118.692 198.182 118.86C198.478 119.02 198.818 119.1 199.202 119.1C199.522 119.1 199.814 119.044 200.078 118.932C200.35 118.82 200.582 118.652 200.774 118.428L201.47 119.136C201.198 119.456 200.862 119.7 200.462 119.868C200.07 120.036 199.65 120.12 199.202 120.12Z" fill="#8E9095"/>
</g>
<g filter="url(#filter1_d_473_371)">
<rect x="154" y="145" width="280" height="35" rx="8" fill="white"/>
<rect x="154.5" y="145.5" width="279" height="34" rx="7.5" stroke="#DDDEDF"/>
<path d="M170.984 167V158.672H172.112V167H170.984ZM171.752 167V165.968H176.528V167H171.752ZM171.752 163.232V162.248H176.132V163.232H171.752ZM171.752 159.704V158.672H176.468V159.704H171.752ZM177.87 167V161.3H178.95V167H177.87ZM181.722 167V163.556C181.722 163.132 181.59 162.8 181.326 162.56C181.07 162.312 180.746 162.188 180.354 162.188C180.09 162.188 179.854 162.244 179.646 162.356C179.438 162.468 179.27 162.624 179.142 162.824C179.014 163.024 178.95 163.264 178.95 163.544L178.506 163.328C178.506 162.896 178.598 162.52 178.782 162.2C178.974 161.88 179.234 161.632 179.562 161.456C179.89 161.272 180.258 161.18 180.666 161.18C181.066 161.18 181.426 161.268 181.746 161.444C182.074 161.62 182.33 161.868 182.514 162.188C182.706 162.508 182.802 162.888 182.802 163.328V167H181.722ZM185.574 167V163.556C185.574 163.132 185.442 162.8 185.178 162.56C184.922 162.312 184.602 162.188 184.218 162.188C183.954 162.188 183.714 162.244 183.498 162.356C183.29 162.468 183.122 162.624 182.994 162.824C182.866 163.024 182.802 163.264 182.802 163.544L182.19 163.328C182.214 162.888 182.33 162.512 182.538 162.2C182.754 161.88 183.03 161.632 183.366 161.456C183.702 161.272 184.07 161.18 184.47 161.18C184.886 161.18 185.258 161.268 185.586 161.444C185.914 161.62 186.174 161.868 186.366 162.188C186.566 162.508 186.666 162.892 186.666 163.34V167H185.574ZM190.56 167.12C190.04 167.12 189.568 166.992 189.144 166.736C188.72 166.472 188.384 166.116 188.136 165.668C187.896 165.22 187.776 164.716 187.776 164.156C187.776 163.596 187.896 163.092 188.136 162.644C188.384 162.196 188.716 161.84 189.132 161.576C189.556 161.312 190.032 161.18 190.56 161.18C190.992 161.18 191.376 161.272 191.712 161.456C192.056 161.632 192.332 161.88 192.54 162.2C192.748 162.512 192.864 162.876 192.888 163.292V165.008C192.864 165.416 192.748 165.78 192.54 166.1C192.34 166.42 192.068 166.672 191.724 166.856C191.388 167.032 191 167.12 190.56 167.12ZM190.74 166.1C191.276 166.1 191.708 165.92 192.036 165.56C192.364 165.192 192.528 164.724 192.528 164.156C192.528 163.764 192.452 163.424 192.3 163.136C192.156 162.84 191.948 162.612 191.676 162.452C191.404 162.284 191.088 162.2 190.728 162.2C190.368 162.2 190.048 162.284 189.768 162.452C189.496 162.62 189.28 162.852 189.12 163.148C188.968 163.436 188.892 163.768 188.892 164.144C188.892 164.528 188.968 164.868 189.12 165.164C189.28 165.452 189.5 165.68 189.78 165.848C190.06 166.016 190.38 166.1 190.74 166.1ZM192.456 167V165.464L192.66 164.072L192.456 162.692V161.3H193.548V167H192.456ZM195.132 167V161.3H196.212V167H195.132ZM195.672 160.16C195.472 160.16 195.308 160.096 195.18 159.968C195.052 159.832 194.988 159.664 194.988 159.464C194.988 159.272 195.052 159.112 195.18 158.984C195.308 158.848 195.472 158.78 195.672 158.78C195.872 158.78 196.036 158.848 196.164 158.984C196.292 159.112 196.356 159.272 196.356 159.464C196.356 159.664 196.292 159.832 196.164 159.968C196.036 160.096 195.872 160.16 195.672 160.16ZM197.804 167V158.432H198.884V167H197.804Z" fill="#8E9095"/>
</g>
</g>
<defs>
<filter id="filter0_d_473_371" x="151" y="95" width="286" height="41" filterUnits="userSpaceOnUse" color-interpolation-filters="sRGB">
<feFlood flood-opacity="0" result="BackgroundImageFix"/>
<feColorMatrix in="SourceAlpha" type="matrix" values="0 0 0 0 0 0 0 0 0 0 0 0 0 0 0 0 0 0 127 0" result="hardAlpha"/>
<feMorphology radius="3" operator="dilate" in="SourceAlpha" result="effect1_dropShadow_473_371"/>
<feOffset/>
<feColorMatrix type="matrix" values="0 0 0 0 0.937255 0 0 0 0 0.278431 0 0 0 0 0.435294 0 0 0 0.1 0"/>
<feBlend mode="normal" in2="BackgroundImageFix" result="effect1_dropShadow_473_371"/>
<feBlend mode="normal" in="SourceGraphic" in2="effect1_dropShadow_473_371" result="shape"/>
</filter>
<filter id="filter1_d_473_371" x="151" y="142" width="286" height="41" filterUnits="userSpaceOnUse" color-interpolation-filters="sRGB">
<feFlood flood-opacity="0" result="BackgroundImageFix"/>
<feColorMatrix in="SourceAlpha" type="matrix" values="0 0 0 0 0 0 0 0 0 0 0 0 0 0 0 0 0 0 127 0" result="hardAlpha"/>
<feMorphology radius="3" operator="dilate" in="SourceAlpha" result="effect1_dropShadow_473_371"/>
<feOffset/>
<feColorMatrix type="matrix" values="0 0 0 0 0.937255 0 0 0 0 0.278431 0 0 0 0 0.435294 0 0 0 0.1 0"/>
<feBlend mode="normal" in2="BackgroundImageFix" result="effect1_dropShadow_473_371"/>
<feBlend mode="normal" in="SourceGraphic" in2="effect1_dropShadow_473_371" result="shape"/>
</filter>
<clipPath id="clip0_473_371">
<path d="M0 16C0 7.16345 7.16344 0 16 0H344C352.837 0 360 7.16344 360 16V198H0V16Z" fill="white"/>
</clipPath>
</defs>
</svg>
