<svg width="40" height="40" viewBox="0 0 40 40" fill="none" xmlns="http://www.w3.org/2000/svg">
<path d="M3.33333 10V30H20V10H3.33333ZM6.88021 25L6.95312 24.8229L8.19271 21.7188C8.19792 21.7031 8.20312 21.6875 8.21354 21.6719L10.7031 15.4427L10.8802 14.9948H12.4583L12.6354 15.4427L15.125 21.6719C15.1302 21.6875 15.1354 21.7031 15.1406 21.7188L16.3802 24.8229L16.4531 25H14.2083L13.4583 23.125H9.86979L9.11979 25H6.875H6.88021ZM10.7083 21.0417H12.6302L11.6667 18.6406L10.7031 21.0417H10.7083Z" fill="#031E59"/>
<path d="M36.6667 10H20V30H36.6667V10ZM29.375 16.25V16.4583H31.6667H32.5H33.5417V18.5417H32.5H32.3958L32.3125 18.776C31.849 20.0469 31.1458 21.2031 30.25 22.1823C30.2969 22.2135 30.3438 22.2396 30.3906 22.2656L31.375 22.8542L32.2656 23.3906L31.1927 25.1771L30.2969 24.6406L29.3125 24.0521C29.0781 23.9115 28.8542 23.7656 28.6302 23.6094C28.0781 24 27.4896 24.3385 26.8594 24.6198L26.6719 24.7031L25.7188 25.125L24.875 23.2188L25.8281 22.7969L26.0156 22.7135C26.349 22.5625 26.6719 22.3958 26.9792 22.2031L26.3438 21.5677L25.6094 20.8333L27.0833 19.3594L27.8177 20.0938L28.5781 20.8542L28.6042 20.8802C29.25 20.1979 29.776 19.4063 30.1562 18.5365L28.3333 18.5417H24.5833H23.5417V16.4583H24.5833H27.2917V16.25V15.2083H29.375V16.25Z" fill="#4D85FF"/>
</svg>
